<?xml version="1.0" encoding="utf-8"?>
<!-- Generator: Adobe Illustrator 18.1.0, SVG Export Plug-In . SVG Version: 6.00 Build 0)  -->
<svg version="1.1" id="图层_1" xmlns="http://www.w3.org/2000/svg" xmlns:xlink="http://www.w3.org/1999/xlink" x="0px" y="0px"
	 viewBox="0 0 325 205" enable-background="new 0 0 325 205" xml:space="preserve">
<path fill="#AFDAE9" d="M156.6,17.4c5,0.6,9.6,2.3,13.7,4.9c-0.8,0.6-1.5,1.2-2.3,1.8c-0.7,0.6-1.5,1.2-2.2,1.9l-2,1.9
	c-0.5-0.3-1-0.5-1.6-0.5c-0.3,0-0.5,0-0.7,0.1c-0.1-0.2-0.2-0.3-0.3-0.5c-0.5-1-1.1-2.1-1.6-3.1c-0.5-1.1-1-2.1-1.5-3.2l-0.7-1.6
	C157.1,18.5,156.9,18,156.6,17.4z M155,17.8c-0.2,0.3-0.4,0.9-0.7,1.5c-0.2,0.3-0.3,0.7-0.5,1.1c-0.2,0.4-0.4,0.8-0.7,1.2
	c-0.5,0.9-1,1.9-1.7,2.9c-0.7,1-1.4,2.2-2.2,3.3c-0.4,0.6-0.8,1.2-1.3,1.7c-0.5,0.6-0.9,1.2-1.4,1.8c-0.2,0.3-0.5,0.6-0.7,0.9
	c-0.3,0.3-0.5,0.6-0.8,0.9c-0.5,0.6-1,1.2-1.6,1.8c-0.6,0.6-1.1,1.2-1.7,1.7c-0.3,0.3-0.6,0.6-0.9,0.9l-0.3,0.3
	c0.2,0.4,0.2,0.8,0.2,1.2c0,0.2,0,0.4-0.1,0.6c0.2,0.1,0.3,0.2,0.5,0.2c0.9,0.5,1.8,1,2.7,1.5c0.9,0.5,1.8,1.1,2.7,1.6
	c0.5,0.3,0.9,0.6,1.4,0.9c0.3,0.2,0.7,0.4,1,0.7c0.5-0.4,1.1-0.6,1.8-0.6c0.2,0,0.4,0,0.6,0.1l0.3-0.6c0.3-0.5,0.6-1.1,1-1.6
	l2.1-3.1l0.5-0.8c0.2-0.3,0.4-0.5,0.6-0.7c0.4-0.5,0.8-1,1.1-1.5c0.8-1,1.5-2,2.4-2.9c0.2-0.2,0.4-0.4,0.5-0.6
	c-0.4-0.5-0.6-1.1-0.6-1.8c0-0.9,0.4-1.8,1.1-2.3l-0.3-0.5c-0.5-1.1-0.9-2.2-1.3-3.3c-0.4-1.1-0.8-2.2-1.1-3.3l-0.5-1.7
	c-0.2-0.6-0.3-1.1-0.5-1.7c-0.4-0.1-0.9-0.1-1.3-0.1C155.3,17.3,155.2,17.5,155,17.8z M162.8,58.7c-0.3-0.4-0.7-0.8-1-1.1
	c-0.2-0.2-0.4-0.4-0.5-0.6c-0.2-0.2-0.4-0.4-0.6-0.5c-0.8-0.7-1.5-1.5-2.3-2.2c-0.4-0.4-0.8-0.7-1.2-1.1c-0.4-0.4-0.8-0.7-1.2-1.1
	c-0.4-0.4-0.8-0.7-1.2-1.1c-0.2-0.2-0.4-0.4-0.6-0.5l-0.7-0.5c-0.3-0.3-0.7-0.5-1-0.8c-0.5,0.3-1.1,0.5-1.7,0.5c-0.1,0-0.3,0-0.4,0
	c-0.4,0.9-0.8,1.8-1.2,2.6c-0.3,0.5-0.5,1.1-0.7,1.7l-0.7,1.7c-0.2,0.6-0.4,1.1-0.6,1.7l-0.6,1.7l-0.6,1.7c-0.2,0.6-0.4,1.1-0.6,1.7
	l-0.5,1.8l-0.3,0.9l-0.2,0.9c-0.2,0.9-0.5,1.8-0.7,2.7c0.3,0.1,0.5,0.3,0.8,0.5c0.1-0.1,0.3-0.2,0.4-0.3c0.7-0.5,1.5-0.9,2.2-1.4
	c1.5-0.9,3.1-1.8,4.8-2.6c0.4-0.2,0.8-0.4,1.3-0.6c0.4-0.2,0.8-0.4,1.3-0.6c0.9-0.4,1.7-0.8,2.6-1.1c0.9-0.3,1.7-0.7,2.6-1
	c0.9-0.3,1.8-0.6,2.7-0.9c0.1,0,0.3-0.1,0.4-0.1c0,0,0,0,0-0.1c0-0.6,0.2-1.1,0.5-1.6C162.9,58.8,162.9,58.8,162.8,58.7z
	 M119.5,56.4c0.5,0.4,1,0.8,1.5,1.2c1,0.8,2,1.6,3.1,2.3l1.6,1.1c0.5,0.4,1,0.7,1.6,1.1l1.6,1.1c0.5,0.4,1.1,0.7,1.6,1
	c0.5,0.3,1.1,0.7,1.6,1l0.8,0.5l0.8,0.5l1.7,0.9c0.3,0.2,0.6,0.3,0.8,0.5l0.9,0.4c1,0.5,2,1.1,3.1,1.5c0.5-0.5,1.2-0.9,2-0.9
	c0.2-0.9,0.4-1.9,0.6-2.8c0.2-1.2,0.6-2.4,0.9-3.6c0.1-0.6,0.3-1.2,0.5-1.8l0.5-1.8c0.4-1.2,0.8-2.4,1.3-3.5l0.7-1.7
	c0.2-0.6,0.5-1.2,0.7-1.7c0.4-0.9,0.8-1.8,1.2-2.7c-0.5-0.5-0.8-1.3-0.8-2.1c0-0.3,0-0.6,0.1-0.9c-0.3-0.2-0.6-0.5-1-0.7
	c-0.4-0.3-0.9-0.6-1.3-0.9c-0.9-0.6-1.7-1.2-2.6-1.7c-0.9-0.5-1.7-1-2.6-1.5c-0.2-0.1-0.3-0.2-0.5-0.3c-0.5,0.6-1.3,1-2.2,1
	c-0.5,0-1.1-0.1-1.5-0.4c-1.3,1-2.5,2-3.8,2.8c-1.2,0.9-2.5,1.7-3.7,2.4c-1.2,0.7-2.4,1.4-3.5,1.9c-0.5,0.3-1.1,0.5-1.6,0.8
	c-0.5,0.3-1,0.5-1.4,0.7c-0.9,0.4-1.7,0.8-2.4,1c-1.3,0.5-2.1,0.8-2.1,0.8c0,1.1,0.1,2.2,0.2,3.2C118.5,55.6,119,56,119.5,56.4z
	 M164.2,57.8c0.4-0.2,0.8-0.3,1.3-0.3c1.1,0,2.1,0.6,2.6,1.5c0.6-0.1,1.2-0.3,1.8-0.4c0.8-0.2,1.7-0.3,2.4-0.4
	c0.8-0.1,1.6-0.3,2.3-0.4c0.8-0.1,1.5-0.2,2.2-0.3c0.7-0.1,1.4-0.1,2-0.2c0.6-0.1,1.2-0.1,1.8-0.1c0.5,0,0.9,0,1.4,0
	c0-0.6,0.2-1.2,0.5-1.6c-0.1-0.1-0.2-0.1-0.3-0.2l-0.9-0.7l-0.9-0.7l-1.8-1.5c-0.3-0.2-0.6-0.5-0.9-0.7l-0.8-0.8l-1.7-1.6
	c-0.6-0.5-1.1-1.1-1.6-1.7l-1.6-1.7l-0.4-0.4l-0.4-0.4l-0.7-0.9l-1.5-1.8c-0.3-0.3-0.5-0.6-0.7-0.9l-0.7-0.9
	c-0.5-0.6-0.9-1.2-1.4-1.9c-0.4-0.6-0.8-1.3-1.3-2l-1.2-2c-0.3-0.5-0.6-1-0.8-1.5c-0.2,0.1-0.5,0.1-0.7,0.1c-0.5,0-0.9-0.1-1.3-0.3
	c-0.2,0.2-0.3,0.4-0.5,0.6c-0.8,0.9-1.5,2-2.2,3c-0.3,0.5-0.7,1-1.1,1.5c-0.2,0.3-0.4,0.5-0.5,0.7l-0.5,0.8l-1.9,3.1
	c-0.4,0.7-0.8,1.4-1.2,2.1c0.5,0.5,0.8,1.2,0.8,2c0,0.4-0.1,0.7-0.2,1c0.3,0.3,0.7,0.5,1,0.8l0.6,0.5c0.2,0.2,0.4,0.4,0.6,0.6
	c0.4,0.4,0.8,0.7,1.3,1.1c0.4,0.4,0.8,0.7,1.2,1.1c0.4,0.4,0.8,0.7,1.2,1.1c0.8,0.8,1.5,1.6,2.3,2.3c0.2,0.2,0.4,0.4,0.6,0.6
	c0.2,0.2,0.4,0.4,0.5,0.6c0.3,0.4,0.7,0.8,1,1.2C164.1,57.7,164.1,57.8,164.2,57.8z M182.9,55c0.5-0.5,1.3-0.9,2.1-0.9
	c0.5,0,1,0.1,1.5,0.4c0.1-1,0.1-2,0.1-3c0-12.4-6.5-23.2-16.3-29.3c-0.7,0.7-1.3,1.4-2,2c-0.7,0.7-1.3,1.4-1.9,2.1l-1.8,2
	c0.4,0.5,0.6,1.1,0.6,1.9c0,0.8-0.3,1.6-0.9,2.1l0.9,1.5l1.2,1.9c0.4,0.6,0.8,1.3,1.3,1.9c0.5,0.6,0.9,1.2,1.3,1.8l0.7,0.9
	c0.2,0.3,0.4,0.6,0.7,0.9l1.4,1.8l0.7,0.9l0.3,0.4l0.4,0.4l1.5,1.7c0.5,0.6,1,1.2,1.5,1.7l1.6,1.7l0.8,0.8c0.3,0.3,0.5,0.5,0.8,0.8
	l1.6,1.6l0.8,0.8l0.8,0.8C182.7,54.9,182.8,55,182.9,55z M132.2,79.6c2.7,1.9,5.7,3.5,8.9,4.6c0-1.2-0.1-2.5-0.1-3.7l0-1.9l0-0.9
	l0.1-0.9l0.1-1.9c0-0.2,0-0.4,0.1-0.6c-0.4-0.1-0.8-0.4-1.1-0.7c-0.2,0.1-0.4,0.3-0.6,0.4c-0.6,0.4-1.1,0.8-1.6,1.1
	c-0.3,0.2-0.5,0.4-0.8,0.5c-0.2,0.2-0.5,0.4-0.7,0.5c-0.5,0.3-0.9,0.7-1.3,0.9c-0.2,0.1-0.4,0.3-0.6,0.4c-0.2,0.1-0.3,0.3-0.5,0.4
	C133,79,132.3,79.5,132.2,79.6c0.1-0.1,0.7-0.8,1.8-1.9c0.6-0.6,1.3-1.3,2.1-2c0.8-0.8,1.8-1.6,2.9-2.5c0.2-0.1,0.4-0.3,0.5-0.4
	c-0.2-0.4-0.3-0.8-0.3-1.2c0-0.1,0-0.2,0-0.4c-1.1-0.5-2.1-1.1-3.1-1.6l-0.9-0.5c-0.3-0.2-0.6-0.3-0.8-0.5l-1.7-1l-0.8-0.5l-0.8-0.5
	c-0.5-0.4-1.1-0.7-1.6-1.1c-0.5-0.4-1.1-0.8-1.6-1.1l-1.6-1.2c-0.5-0.4-1-0.8-1.5-1.2l-1.5-1.2c-0.5-0.4-1-0.9-1.4-1.3
	c-0.5-0.4-0.9-0.9-1.4-1.3c-0.9-0.9-1.8-1.9-2.7-2.8C119,65.2,124.4,74,132.2,79.6z M123,33.4c-3.3,5.3-5.2,11.5-5.2,18.2
	c0,0.1,0,0.3,0,0.4c0,0,0.7-0.4,1.9-1.2c0.6-0.4,1.3-0.8,2.2-1.3c0.8-0.5,1.8-1.1,2.8-1.8c0.3-0.2,0.5-0.3,0.8-0.5
	c0.3-0.2,0.5-0.4,0.8-0.6c0.5-0.4,1.1-0.7,1.7-1.1c0.6-0.4,1.1-0.8,1.7-1.3c0.6-0.4,1.2-0.9,1.8-1.3c0.6-0.5,1.2-0.9,1.8-1.4
	c0.6-0.5,1.2-1,1.8-1.5c-0.1-0.3-0.2-0.7-0.2-1.1c0-0.2,0-0.4,0.1-0.6c-0.6-0.3-1.1-0.6-1.7-0.8c-1.5-0.7-2.9-1.3-4.1-1.8
	c-0.6-0.2-1.2-0.5-1.7-0.7c-0.5-0.2-1-0.4-1.5-0.6C124.1,33.8,123.1,33.4,123,33.4c0.1,0,1.2,0.2,3,0.7c0.9,0.2,2.1,0.5,3.4,0.9
	c0.6,0.2,1.3,0.4,2.1,0.6c0.7,0.3,1.5,0.5,2.2,0.8c0.6,0.2,1.2,0.4,1.7,0.7c0.5-0.7,1.4-1.2,2.4-1.2c0.5,0,1,0.1,1.4,0.3l0.3-0.3
	c0.3-0.3,0.6-0.6,0.9-0.8c0.6-0.6,1.1-1.1,1.7-1.7c0.5-0.6,1.1-1.1,1.6-1.7c0.3-0.3,0.5-0.6,0.8-0.8c0.3-0.3,0.5-0.6,0.8-0.8
	c0.5-0.6,1-1.1,1.5-1.6c0.5-0.5,0.9-1.1,1.4-1.6c0.2-0.3,0.4-0.5,0.7-0.8c0.1-0.1,0.2-0.3,0.3-0.4c0.1-0.1,0.2-0.3,0.3-0.4
	c0.4-0.5,0.8-1,1.2-1.5c0.8-0.9,1.4-1.8,2-2.6c0.3-0.4,0.6-0.8,0.8-1.1c0.2-0.4,0.5-0.7,0.7-1c0.4-0.6,0.7-1,1-1.3
	c0.2-0.3,0.3-0.5,0.3-0.5c-1-0.1-2.1-0.1-3.1-0.1C139.9,17.1,129,23.6,123,33.4z M173.6,78.6c-1.3,0-2.6,0-3.9,0
	c-0.6,0-1.3-0.1-1.9-0.1l-1.9-0.1c-0.6,0-1.3-0.1-1.9-0.2L162,78c-0.6-0.1-1.3-0.2-1.9-0.3l-1.9-0.3l-1-0.2l-1-0.2
	c-0.6-0.1-1.3-0.3-1.9-0.4l-1-0.2c-0.3-0.1-0.6-0.2-0.9-0.3l-1.9-0.5c-1.3-0.3-2.5-0.8-3.7-1.2c-0.8-0.3-1.5-0.6-2.3-0.9
	c-0.5,0.6-1.3,1-2.2,1c-0.1,0.8-0.3,1.6-0.4,2.3l-0.1,0.9l-0.1,0.9l-0.2,1.8c-0.1,1.2-0.3,2.4-0.4,3.7c3.5,1.2,7.2,1.8,11.1,1.8
	C160.3,86,167.7,83.2,173.6,78.6z M173.6,78.6c0.9-0.7,1.7-1.4,2.5-2.2c4.6-4.4,7.9-10,9.5-16.3c-0.2,0-0.4,0-0.5,0
	c-1.5,0-2.7-1.1-2.9-2.5c-0.4,0.1-0.9,0.1-1.4,0.2c-0.6,0.1-1.2,0.2-1.8,0.3c-0.6,0.1-1.3,0.2-2,0.4c-0.7,0.1-1.4,0.2-2.1,0.4
	c-0.7,0.2-1.5,0.4-2.3,0.5c-0.8,0.2-1.6,0.4-2.4,0.6c-0.6,0.2-1.1,0.3-1.7,0.5v0c0,0.7-0.2,1.3-0.7,1.9c1.1,1.4,2.1,3,3,4.3
	c0.2,0.3,0.5,0.7,0.7,1c0.2,0.3,0.4,0.7,0.6,1c0.4,0.7,0.7,1.3,1.1,1.9c0.3,0.6,0.7,1.1,0.9,1.6c0.3,0.5,0.5,1,0.7,1.4
	c0.4,0.9,0.7,1.6,1,2c0.2,0.4,0.3,0.6,0.3,0.7c0-0.1-0.2-0.3-0.4-0.7c-0.3-0.4-0.7-1.1-1.2-1.9c-0.3-0.4-0.5-0.9-0.8-1.4
	c-0.3-0.5-0.7-1-1.1-1.5c-0.4-0.5-0.8-1.1-1.2-1.8c-0.2-0.3-0.4-0.6-0.7-0.9c-0.2-0.3-0.5-0.6-0.7-1c-0.5-0.7-1-1.3-1.5-2
	c-0.3-0.4-0.5-0.7-0.8-1.1c-0.3-0.3-0.5-0.7-0.8-1c-0.4,0.2-0.8,0.3-1.3,0.3c-1,0-1.9-0.5-2.5-1.3c-0.1,0-0.3,0.1-0.4,0.1
	c-0.8,0.3-1.7,0.6-2.6,0.9c-0.9,0.3-1.7,0.7-2.6,1c-0.9,0.3-1.7,0.7-2.5,1.1c-0.4,0.2-0.8,0.4-1.3,0.6c-0.4,0.2-0.8,0.4-1.2,0.6
	c-0.8,0.4-1.6,0.8-2.4,1.2c-0.8,0.4-1.6,0.8-2.3,1.2c-0.8,0.4-1.5,0.9-2.2,1.3c-0.1,0.1-0.3,0.2-0.4,0.2c0.1,0.3,0.2,0.6,0.2,0.9
	c0,0.1,0,0.1,0,0.2c0.7,0.3,1.5,0.6,2.2,0.9l1.8,0.6c0.6,0.2,1.2,0.4,1.8,0.6l1.8,0.6c0.3,0.1,0.6,0.2,0.9,0.3l0.9,0.3
	c0.6,0.2,1.2,0.3,1.8,0.5l0.9,0.3l0.9,0.2l1.9,0.4c0.6,0.1,1.2,0.3,1.9,0.4c1.3,0.2,2.5,0.5,3.8,0.7l3.8,0.6
	C171,78.2,172.3,78.4,173.6,78.6l0-0.8L173.6,78.6L173.6,78.6z"/>
<g>
	<g>
		<g>
			<path fill="#AFDAE9" d="M269.4,184.2v-7.3c0-0.4-0.2-0.8-0.5-1.1c-0.3-0.3-0.7-0.5-1.1-0.5h-21.7c-0.4,0-0.8,0.2-1.1,0.5
				c-0.3,0.3-0.5,0.7-0.5,1.1v7.3l-8.5,4.7c-0.1,0-0.2,0.1-0.2,0.2c-0.1,0.1-0.1,0.2-0.1,0.3v1c0,0.1,0.1,0.3,0.2,0.4
				c0.1,0.1,0.3,0.2,0.4,0.2h41.4c0.1,0,0.3-0.1,0.4-0.2c0.1-0.1,0.2-0.2,0.2-0.4v-1c0-0.1,0-0.2-0.1-0.3c-0.1-0.1-0.1-0.2-0.2-0.2
				L269.4,184.2z"/>
			<path fill="#AFDAE9" d="M305.9,107.1c-0.7-0.7-1.7-1.1-2.7-1.1h-92.5c-1,0-1.9,0.4-2.7,1.1c-0.7,0.7-1.1,1.7-1.1,2.7v59.9
				c0,1,0.4,1.9,1.1,2.7c0.7,0.7,1.7,1.1,2.7,1.1h92.5c1,0,1.9-0.4,2.7-1.1c0.7-0.7,1.1-1.7,1.1-2.7v-59.9
				C307,108.8,306.6,107.8,305.9,107.1z M257,171.8c-0.9,0-1.7-0.7-1.7-1.7c0-0.9,0.7-1.7,1.7-1.7c0.9,0,1.7,0.7,1.7,1.7
				C258.7,171,257.9,171.8,257,171.8z M300.5,166.9h-87v-54.3h87V166.9z"/>
		</g>
	</g>
	<g>
		<g>
			<g>
				<path fill="#AFDAE9" d="M266.6,86.2c0,2.7-2.2,4.8-4.8,4.8c-2.7,0-4.8-2.2-4.8-4.8c0-2.7,2.2-4.8,4.8-4.8
					C264.5,81.3,266.6,83.5,266.6,86.2z"/>
				<path fill="#AFDAE9" d="M266.6,51.2c0,2.7-2.2,4.8-4.8,4.8c-2.7,0-4.8-2.2-4.8-4.8c0-2.7,2.2-4.8,4.8-4.8
					C264.5,46.4,266.6,48.5,266.6,51.2z"/>
				<path fill="#AFDAE9" d="M266.6,68.7c0,2.7-2.2,4.8-4.8,4.8c-2.7,0-4.8-2.2-4.8-4.8c0-2.7,2.2-4.8,4.8-4.8
					C264.5,63.9,266.6,66,266.6,68.7z"/>
			</g>
			<path fill="#AFDAE9" d="M226.8,56c-2.7,0-4.8-2.2-4.8-4.8c0-2.7,2.2-4.8,4.8-4.8c2.7,0,4.8,2.2,4.8,4.8
				C231.7,53.9,229.5,56,226.8,56z"/>
			<path fill="#AFDAE9" d="M244.3,56c-2.7,0-4.8-2.2-4.8-4.8c0-2.7,2.2-4.8,4.8-4.8c2.7,0,4.8,2.2,4.8,4.8
				C249.1,53.9,247,56,244.3,56z"/>
		</g>
		<g>
			<g>
				<path fill="#AFDAE9" d="M112.4,160.5c0-2.7,2.2-4.8,4.8-4.8c2.7,0,4.8,2.2,4.8,4.8c0,2.7-2.2,4.8-4.8,4.8
					C114.6,165.4,112.4,163.2,112.4,160.5z"/>
				<path fill="#AFDAE9" d="M147.1,160.8c0-2.7,2.2-4.8,4.8-4.8c2.7,0,4.8,2.2,4.8,4.8c0,2.7-2.2,4.8-4.8,4.8
					C149.3,165.6,147.1,163.5,147.1,160.8z"/>
				<path fill="#AFDAE9" d="M130,160.8c0-2.7,2.2-4.8,4.8-4.8c2.7,0,4.8,2.2,4.8,4.8s-2.2,4.8-4.8,4.8
					C132.1,165.6,130,163.5,130,160.8z"/>
			</g>
			<path fill="#AFDAE9" d="M186.9,156c2.7,0,4.8,2.2,4.8,4.8c0,2.7-2.2,4.8-4.8,4.8c-2.7,0-4.8-2.2-4.8-4.8
				C182.1,158.1,184.3,156,186.9,156z"/>
			<path fill="#AFDAE9" d="M169.5,156c2.7,0,4.8,2.2,4.8,4.8c0,2.7-2.2,4.8-4.8,4.8c-2.7,0-4.8-2.2-4.8-4.8
				C164.6,158.1,166.8,156,169.5,156z"/>
		</g>
		<g>
			<g>
				<path fill="#AFDAE9" d="M59.9,84.1c0,2.7-2.2,4.8-4.8,4.8c-2.7,0-4.8-2.2-4.8-4.8c0-2.7,2.2-4.8,4.8-4.8
					C57.7,79.3,59.9,81.5,59.9,84.1z"/>
				<path fill="#AFDAE9" d="M94.9,49.2c0,2.7-2.2,4.8-4.8,4.8c-2.7,0-4.8-2.2-4.8-4.8c0-2.7,2.2-4.8,4.8-4.8
					C92.7,44.3,94.9,46.5,94.9,49.2z"/>
				<path fill="#AFDAE9" d="M59.9,66.6c0,2.7-2.2,4.8-4.8,4.8c-2.7,0-4.8-2.2-4.8-4.8c0-2.7,2.2-4.8,4.8-4.8
					C57.7,61.8,59.9,64,59.9,66.6z"/>
			</g>
			<path fill="#AFDAE9" d="M55.1,54c-2.7,0-4.8-2.2-4.8-4.8c0-2.7,2.2-4.8,4.8-4.8c2.7,0,4.8,2.2,4.8,4.8C59.9,51.8,57.8,54,55.1,54
				z"/>
			<path fill="#AFDAE9" d="M72.6,54c-2.7,0-4.8-2.2-4.8-4.8c0-2.7,2.2-4.8,4.8-4.8c2.7,0,4.8,2.2,4.8,4.8C77.4,51.8,75.2,54,72.6,54
				z"/>
		</g>
	</g>
</g>
<g>
	<path fill="#AFDAE9" d="M87,110.5c-3.6,0-6.4,2.9-6.4,6.4c0,0.2,0,0.4,0,0.6l-9.2,3.6h0c-1.2-1.7-3.1-2.8-5.3-2.8
		c-2,0-3.7,0.9-4.9,2.3l-10-5.1c0-0.3,0.1-0.7,0.1-1c0-3.6-2.9-6.4-6.4-6.4s-6.4,2.9-6.4,6.4v0.1l-9.5,3.8c-1.2-1.6-3-2.5-5.1-2.5
		c-3.6,0-6.4,2.9-6.4,6.4c0,3.6,2.9,6.4,6.4,6.4s6.4-2.9,6.4-6.4c0-0.2,0-0.4,0-0.5l9.2-3.7c1.1,1.8,3.1,2.9,5.4,2.9
		c2,0,3.8-0.9,4.9-2.3l10,5.1c-0.1,0.4-0.1,0.7-0.1,1.1c0,3.6,2.9,6.4,6.4,6.4c3.6,0,6.4-2.9,6.4-6.4c0-0.1,0-0.2,0-0.3l9.4-3.7
		c1.2,1.5,3,2.5,5.1,2.5c3.6,0,6.4-2.9,6.4-6.4C93.5,113.3,90.6,110.5,87,110.5z M28.4,123.5c0,0.1-0.1,0.2-0.1,0.4
		c-0.8,2.2-3.1,3.6-5.4,3l-0.2-0.1c-2.3-0.7-3.6-3-3.1-5.4c0.3-1.4,1.2-2.5,2.5-3.1c0.6-0.3,1.3-0.4,1.9-0.4c0.7,0,1.3,0.1,1.9,0.4
		c0.1,0.1,0.3,0.1,0.4,0.2c0.5,0.3,1,0.8,1.4,1.4c0.4,0.5,0.6,1.1,0.7,1.7C28.6,122.2,28.5,122.9,28.4,123.5z M49.3,115.5
		c0,0.1-0.1,0.2-0.1,0.4c-0.8,2.2-3.1,3.6-5.4,3l-0.2-0.1c-2.3-0.7-3.6-3-3.1-5.4c0.3-1.4,1.2-2.5,2.5-3.1c0.6-0.3,1.3-0.4,1.9-0.4
		s1.3,0.1,1.9,0.4c0.1,0.1,0.3,0.1,0.4,0.2c0.5,0.3,1,0.8,1.4,1.4c0.4,0.5,0.6,1.1,0.7,1.7C49.4,114.3,49.4,114.9,49.3,115.5z
		 M70.5,125.9c0,0.1-0.1,0.2-0.1,0.4c-0.8,2.2-3.1,3.6-5.4,3l-0.2-0.1c-2.3-0.7-3.6-3-3.1-5.4c0.3-1.4,1.2-2.5,2.5-3.1
		c0.6-0.3,1.3-0.4,1.9-0.4c0.7,0,1.3,0.1,1.9,0.4c0.1,0.1,0.3,0.1,0.4,0.2c0.5,0.3,1,0.8,1.4,1.4c0.4,0.5,0.6,1.1,0.7,1.7
		C70.7,124.6,70.6,125.2,70.5,125.9z M91.4,117.9c0,0.1-0.1,0.2-0.1,0.4c-0.8,2.2-3.1,3.6-5.4,3l-0.2-0.1c-2.3-0.7-3.6-3-3.1-5.4
		c0.3-1.4,1.2-2.5,2.5-3.1c0.6-0.3,1.3-0.4,1.9-0.4s1.3,0.1,1.9,0.4c0.1,0.1,0.3,0.1,0.4,0.2c0.5,0.3,1,0.8,1.4,1.4
		c0.4,0.5,0.6,1.1,0.7,1.7C91.6,116.7,91.5,117.3,91.4,117.9z"/>
	<path fill="#AFDAE9" d="M41,178.1c3.1,0,6,0,9.1,0c0-16.6,0-33.1,0-49.6c-3.1,0-6.1,0-9.1,0C41,145.1,41,161.6,41,178.1z"/>
	<path fill="#AFDAE9" d="M61.7,178.1c3.1,0,6,0,9.1,0c0-13,0-25.8,0-38.6c-3.1,0-6.1,0-9.1,0C61.7,152.4,61.7,165.3,61.7,178.1z"/>
	<path fill="#AFDAE9" d="M20,178.1c3.1,0,6,0,9.1,0c0-13,0-25.8,0-38.6c-3.1,0-6.1,0-9.1,0C20,152.5,20,165.3,20,178.1z"/>
	<path fill="#AFDAE9" d="M82.3,177.8c3,0,6,0,9.1,0c0-15.8,0-31.5,0-47.3c-3.1,0-6.1,0-9.1,0C82.3,146.3,82.3,162,82.3,177.8z"/>
	<path fill="#AFDAE9" d="M92.7,189.7H17.5c-1.8,0-3.3-1.5-3.3-3.3s1.5-3.3,3.3-3.3h75.2c1.8,0,3.3,1.5,3.3,3.3
		S94.5,189.7,92.7,189.7z"/>
</g>
</svg>
