<?xml version="1.0" encoding="utf-8"?>
<!-- Generator: Adobe Illustrator 18.1.0, SVG Export Plug-In . SVG Version: 6.00 Build 0)  -->
<svg version="1.1" id="图层_1" xmlns="http://www.w3.org/2000/svg" xmlns:xlink="http://www.w3.org/1999/xlink" x="0px" y="0px"
	 viewBox="0 0 280.8 316" enable-background="new 0 0 280.8 316" xml:space="preserve">
<g>
	<path fill="#AFDAE9" d="M35.3,169.3c-5.3,0-9.7,4.1-10.5,9.5c-0.1,0.6-0.1,1.1-0.1,1.7c0,0.2,0,0.5,0,0.7c0,0.3,0.1,0.7,0.1,1
		c0,0.1,0,0.2,0,0.3c0.7,7.6,5.1,13.4,10.4,13.4c5.4,0,9.8-5.8,10.4-13.4c0-0.1,0-0.2,0-0.3c0-0.3,0.1-0.7,0.1-1c0-0.2,0-0.5,0-0.7
		c0-0.6,0-1.1-0.1-1.7C45,173.4,40.6,169.3,35.3,169.3z"/>
	<path fill="#AFDAE9" d="M26.4,216.1L26.4,216.1c0-2.4,0.9-4.6,2.6-6.3c1.7-1.7,3.9-2.6,6.3-2.6c2.4,0,4.6,0.9,6.3,2.6
		c1.7,1.7,2.6,3.9,2.6,6.3v0c7,0,12.4-0.5,12.4-7.7c0-7.1-5.2-12.9-12.1-13.9c0,0,0,0-0.1,0c-0.2,0-0.4,0-0.6-0.1c0,0,0,0,0,0.1
		c0,0.1,0,0.1,0,0.2c0,0.3-0.1,0.6-0.3,1c-1,2.6-4.4,7.5-6.3,10.3l-0.4-5.8c0.6-0.3,1.1-0.8,1.4-1.3c0.2-0.4,0.4-0.8,0.4-1.3
		c0,0-1.5,0.6-3,0.6c-0.1,0-0.2,0-0.3,0c-0.1,0-0.2,0-0.3,0c-1.5,0-3-0.6-3-0.6c0,0.5,0.1,0.9,0.4,1.3c0.3,0.6,0.8,1.1,1.4,1.3
		l-0.4,5.8c-2-2.8-5.3-7.7-6.3-10.3c-0.2-0.3-0.3-0.6-0.3-1c0-0.1,0-0.1,0-0.2c0,0,0,0,0-0.1c-0.2,0-0.4,0-0.6,0.1c0,0-0.1,0-0.1,0
		c-6.8,0.9-12.1,6.8-12.1,13.9C14.1,215.5,19.5,216,26.4,216.1z"/>
	<path fill="#AFDAE9" d="M40.8,219.1c0.5-0.9,0.8-1.9,0.8-3c0-1.7-0.7-3.3-1.8-4.4c-1.2-1.2-2.8-1.8-4.4-1.8c-1.7,0-3.3,0.7-4.4,1.8
		c-1.2,1.2-1.8,2.8-1.8,4.4c0,3.5,2.8,6.3,6.3,6.3c1.1,0,2.1-0.3,3-0.8l4.3,4.3c0.3,0.4,0.8,0.5,1.3,0.5c0.5,0,0.9-0.2,1.3-0.5
		c0.7-0.7,0.7-1.8,0-2.5L40.8,219.1z M37.7,218.5c-0.6,0.6-1.5,1-2.4,1c-1.9,0-3.4-1.5-3.4-3.4c0-0.9,0.4-1.8,1-2.4
		c0.6-0.6,1.5-1,2.4-1c0.9,0,1.8,0.4,2.4,1c0.6,0.6,1,1.5,1,2.4C38.7,217,38.4,217.8,37.7,218.5z"/>
</g>
<g>
	<g>
		<path fill="#AFDAE9" d="M123.6,81.2h-8.9c-1.3,0-2.4-1.1-2.4-2.4V60.6c0-1.3,1.1-2.4,2.4-2.4h8.9c1.3,0,2.4,1.1,2.4,2.4v18.3
			C126,80.1,124.9,81.2,123.6,81.2z"/>
		<path fill="#AFDAE9" d="M143,81.2H135c-1.5,0-2.8-1.3-2.8-2.8V52c0-1.5,1.3-2.8,2.8-2.8h8.1c1.5,0,2.8,1.3,2.8,2.8v26.3
			C145.8,79.9,144.6,81.2,143,81.2z"/>
		<path fill="#AFDAE9" d="M162.6,81.2h-7.4c-1.7,0-3.1-1.4-3.1-3.1V43.6c0-1.7,1.4-3.1,3.1-3.1h7.4c1.7,0,3.1,1.4,3.1,3.1V78
			C165.7,79.8,164.3,81.2,162.6,81.2z"/>
	</g>
	<path fill="#AFDAE9" d="M163.7,14.3c-2.9,0.1-5.1,2.5-5,5.4l-13.3,13l-11.3-9.9l-20.7,20.8c-2.7,0.3-4.7,2.6-4.6,5.4
		c0.1,2.9,2.6,5.1,5.4,5c2.9-0.1,5.1-2.6,5-5.4c0-0.2-0.1-0.5-0.1-0.7L134.8,33l10.9,9.6l18.1-17.8c0.1,0,0.2,0,0.3,0
		c2.9-0.1,5.1-2.6,5-5.4C169,16.5,166.6,14.2,163.7,14.3z"/>
</g>
<g id="Shopping_6_Glyph">
	<path fill="#AFDAE9" d="M21.8,90.4h-7.4l8,25.8h31l9.2-25.8H25.5l-4.6-13.5H7.1v3.5h11.4L21.8,90.4z M30.7,104h1.5
		c0-0.1,0-0.3,0-0.5c0-0.3,0-0.5,0-0.8h-1.5v-1.9h1.8c0.3-1.4,1-2.7,1.8-3.6c1.5-1.7,3.6-2.7,6.2-2.7c1.6,0,3,0.4,4,0.8l-0.7,3
		c-0.7-0.3-1.8-0.6-3-0.6c-1.3,0-2.5,0.4-3.3,1.4c-0.4,0.4-0.7,1-0.9,1.7h6.6v1.9h-7c0,0.3,0,0.6,0,0.8c0,0.2,0,0.3,0,0.4h7.1v1.9
		h-6.7c0.2,0.8,0.5,1.4,0.9,1.9c0.9,1,2.1,1.4,3.4,1.4c1.2,0,2.5-0.4,3-0.7l0.6,3c-0.9,0.5-2.4,1-4.2,1c-2.6,0-5-1.1-6.5-3
		c-0.7-0.9-1.3-2-1.5-3.5h-1.7V104z"/>
	<circle fill="#AFDAE9" cx="27.8" cy="125.9" r="6.7"/>
	<circle fill="#AFDAE9" cx="48" cy="125.9" r="6.7"/>
</g>
<g id="Flat_copy">
	<g>
		<path fill="#AFDAE9" d="M236.1,173.2c-13.6,0-24.6,11-24.6,24.6c0,13.6,11,24.6,24.6,24.6c13.6,0,24.6-11,24.6-24.6
			C260.7,184.3,249.7,173.2,236.1,173.2z"/>
	</g>
	<path fill="#FFFFFF" d="M232.5,211.6h5.7v-13.7h3.8l0.5-4.7h-4.3l0-2.4c0-1.2,0.1-1.9,1.9-1.9h2.4v-4.7h-3.8
		c-4.5,0-6.1,2.3-6.1,6.1v2.8h-2.8v4.7h2.8V211.6L232.5,211.6z"/>
</g>
<path fill="#AFDAE9" d="M113.1,123.8c0.3,0,0.6-0.1,0.8-0.3c13.4-9.5,31.8-10.5,46.3-2.6l-4.7,2l15.2,4.1l-8-13.6l-0.6,5.2
	c-15.6-8.7-35.4-7.7-49.8,2.6c-0.7,0.5-0.8,1.4-0.3,2C112.2,123.5,112.6,123.8,113.1,123.8z"/>
<path fill="#AFDAE9" d="M100.2,138.4l2,4.7l4.1-15.2l-13.6,8l5.2,0.6c-8.7,15.6-7.7,35.4,2.6,49.8c0.3,0.4,0.7,0.6,1.2,0.6
	c0.3,0,0.6-0.1,0.8-0.3c0.7-0.5,0.8-1.4,0.3-2C93.3,171.3,92.3,153,100.2,138.4z"/>
<path fill="#AFDAE9" d="M164.1,195.8c-13.4,9.5-31.8,10.5-46.3,2.6l4.7-2l-15.2-4.1l8,13.6l0.6-5.2c7.1,3.9,15,5.9,22.9,5.9
	c9.5,0,19-2.8,26.9-8.5c0.7-0.5,0.8-1.4,0.3-2C165.7,195.5,164.8,195.3,164.1,195.8z"/>
<path fill="#AFDAE9" d="M177.6,132.8c-0.5-0.7-1.4-0.8-2-0.3c-0.7,0.5-0.8,1.4-0.3,2c9.5,13.4,10.5,31.8,2.6,46.3l-2-4.7l-4.1,15.2
	l13.6-8l-5.2-0.6C188.8,167.1,187.8,147.3,177.6,132.8z"/>
<g id="Layer_3">
	<g>
		<path fill="#AFDAE9" d="M239.6,113.3l2-2.7c0.1-0.1,0.1-0.3,0.1-0.4c0-0.2-0.1-0.3-0.3-0.4c-0.1-0.1-0.3-0.1-0.4-0.1
			c-0.2,0-0.4,0.1-0.5,0.2l-2,2.7c-0.2,0.3-0.1,0.7,0.2,0.9C239,113.6,239.4,113.6,239.6,113.3z"/>
		<path fill="#AFDAE9" d="M237.5,111.8l2.6-3.5c0.2-0.3,0.1-0.7-0.2-0.9c-0.1-0.1-0.3-0.1-0.4-0.1c-0.2,0-0.4,0.1-0.5,0.2l-2.6,3.5
			c-0.1,0.1-0.1,0.3-0.1,0.4c0,0.2,0.1,0.3,0.3,0.4C236.9,112.1,237.3,112,237.5,111.8z"/>
		<path fill="#AFDAE9" d="M236.2,97.7c1.1,1.2,3.3,1.1,3.9,1c1.1-0.9,2.3-1.5,3.5-1.7c1.3-0.2,2.8,0,4.7,0.5
			c0.5,0.1,1.1,0.3,1.6,0.5c0,0,0.1,0,0.2,0.1c0,0,0.1,0.1,0.1,0.1l1.6-0.4l-1.6-2.7l1.2-1.2c-2.2-1.6-4.9-2.5-7.8-2.5
			c-2.3,0-4.5,0.6-6.5,1.7l0.8,1.3l-2,3.3C236.1,97.6,236.2,97.6,236.2,97.7z"/>
		<path fill="#AFDAE9" d="M234.5,107.7c0.6-0.6,1.6-0.8,2.4-0.2c0.2,0.1,0.4,0.3,0.5,0.5l0.8-1.1c0.6-0.7,1.7-0.9,2.5-0.3
			c0.6,0.5,0.9,1.3,0.6,2c0.3,0,0.6,0.1,0.8,0.3c0.4,0.3,0.6,0.7,0.7,1.2c0,0.3,0,0.5-0.1,0.8c0.2,0,0.5,0.1,0.7,0.3
			c0.8,0.6,0.9,1.6,0.4,2.4c0.4,0.3,1.3,0.7,2.1,1.2c0.2,0.1,0.4,0.1,0.5,0c0.3-0.1,0.5-0.4,0.6-0.7l-1.2-0.8
			c-0.3-0.2-0.4-0.5-0.2-0.8c0.2-0.3,0.5-0.4,0.8-0.2l1.7,1c0.5,0.1,0.8,0,1.1-0.2c0.2-0.2,0.3-0.4,0.4-0.6l-2.8-1.6
			c-0.3-0.2-0.4-0.5-0.2-0.8c0.2-0.3,0.5-0.4,0.8-0.2l3.1,1.8c0.5,0,0.8-0.1,1-0.4c0.2-0.2,0.2-0.5,0.2-0.8l-4.7-3
			c-0.3-0.2-0.3-0.5-0.2-0.8c0.2-0.3,0.5-0.3,0.8-0.2l4.7,3c0.1,0,0.2,0,0.2,0.1c0.4,0.1,0.7,0,0.9-0.1c0.2-0.1,0.3-0.3,0.3-0.5
			c0.1-0.6-0.7-1.2-1.3-1.6c-2-1.5-4.1-2.8-6.1-4.1l-1.7-1.1c-0.9-0.6-1.3-0.5-1.4-0.4l-2.5,2.2c-0.8,0.6-1.5,0.8-2.1,0.6
			c-0.8-0.2-1.1-1-1.1-1.1c-0.2-0.9,0.2-1.6,0.4-2.1c0.3-0.6,0.7-1.1,1.1-1.6c-1.1,0-2.6-0.3-3.6-1.4l-3.7,6.2c0,0,0.1,0,0.1,0.1
			C231.8,104.8,233.2,106.8,234.5,107.7z"/>
		<path fill="#AFDAE9" d="M235.8,108.2c-0.2,0-0.4,0.1-0.5,0.2l-0.8,1.1c-0.1,0.1-0.1,0.3-0.1,0.4c0,0.2,0.1,0.3,0.3,0.4
			c0.3,0.2,0.7,0.2,0.9-0.1l0.8-1.1c0.1-0.1,0.1-0.3,0.1-0.4c0-0.2-0.1-0.3-0.3-0.4C236.1,108.3,235.9,108.2,235.8,108.2z"/>
		<path fill="#AFDAE9" d="M241.5,114.8l1.4-1.9c0.2-0.3,0.1-0.7-0.2-0.9c-0.1-0.1-0.3-0.1-0.4-0.1c-0.2,0-0.4,0.1-0.5,0.2l-1.2,1.6
			l-0.2,0.2c0,0,0,0,0,0c-0.1,0.1-0.1,0.3-0.1,0.4c0,0.2,0.1,0.3,0.3,0.4C240.9,115.1,241.3,115,241.5,114.8z"/>
		<path fill="#AFDAE9" d="M270,100l-4.1-0.3c-0.1-0.3-0.1-0.6-0.2-0.9c-0.6-2.1-1.4-4-2.5-5.8c0,0,1.2-1.3,2.8-3
			c1.5-1.7,1.1-4.5-0.9-6.3l-2.2-2c-1.1-1-2.4-1.5-3.6-1.5c-1.1,0-2.1,0.4-2.9,1.2l-2.8,3.1c-2.1-1-4.5-1.7-6.8-2
			c0,0-0.3-1.8-0.6-4.1c-0.3-2-2.3-3.4-4.6-3.4c-0.3,0-0.6,0-0.9,0.1l-3,0.5c-2.7,0.4-4.6,2.6-4.3,4.9l0.6,4.2c-2.2,1-4.1,2.4-5.8,4
			c0,0-1.7-0.9-3.7-2.1c-0.6-0.3-1.2-0.5-1.9-0.5c-1.6,0-3.3,1-4.3,2.7l-1.5,2.6c-1.4,2.4-0.8,5.2,1.2,6.4l3.7,2.1
			c-0.5,2.3-0.7,4.6-0.5,7c0,0-1.8,0.7-3.9,1.6c-2.2,0.9-3.1,3.6-2.1,6.2l1.1,2.8c0.8,2,2.6,3.3,4.4,3.3c0.5,0,0.9-0.1,1.4-0.3
			l3.9-1.6c1.5,1.9,3.3,3.5,5.2,4.8c0,0-0.5,1.8-1.2,4c-0.7,2.2,0.9,4.6,3.6,5.4l2.9,0.9c0.6,0.2,1.1,0.2,1.7,0.2
			c2,0,3.8-1.1,4.3-2.7l1.2-3.9c0.1,0,0.1,0,0.2,0c2,0,4-0.3,6.1-0.8c0.3-0.1,0.7-0.2,1-0.3c0,0,1,1.5,2.3,3.3
			c0.7,1,1.9,1.5,3.2,1.5c1.1,0,2.2-0.3,3.2-1l2.5-1.7c2.3-1.6,3.1-4.3,1.8-6.1l-2.3-3.3c1.6-1.9,2.8-4.1,3.6-6.4c0,0,1.8,0.1,4,0.3
			c0.1,0,0.1,0,0.2,0c2.1,0,4-2.1,4.2-4.7l0.2-3C274,102.5,272.3,100.2,270,100z M243.7,120.1c-8.5,0-15.3-6.9-15.3-15.4
			c0-8.5,6.9-15.4,15.3-15.4c8.5,0,15.3,6.9,15.3,15.4C259,113.3,252.2,120.1,243.7,120.1z"/>
		<path fill="#AFDAE9" d="M252.4,98.8l-1.9,0.5c-0.3,0.1-0.5-0.1-0.8-0.2c-0.5-0.2-1-0.4-1.5-0.5c-1.7-0.5-3.1-0.6-4.3-0.4
			c-2.6,0.4-4.2,2.6-4.9,3.9c-0.3,0.5-0.4,0.9-0.3,1.2h0c0,0,0.1,0.2,0.4,0.3c0.2,0.1,0.6-0.1,1-0.4l2.3-2.1c0.2-0.3,1-0.9,2.8,0.2
			l1.7,1.1c2,1.3,4.1,2.6,6,4c0.3,0.2,0.6,0.4,0.8,0.7l2.5-1.9L252.4,98.8C252.4,98.8,252.4,98.8,252.4,98.8z"/>
		<path fill="#AFDAE9" d="M254.7,109.2c-0.1,0.5-0.4,1-0.8,1.3c-0.3,0.2-0.8,0.4-1.2,0.4c0,0,0,0,0,0c0,0.4-0.1,0.8-0.5,1.2
			c-0.4,0.5-0.9,0.7-1.6,0.8c-0.1,0.4-0.3,0.9-0.8,1.2c-0.4,0.3-0.9,0.5-1.4,0.5c-0.1,0-0.2,0-0.3,0c-0.2,0.4-0.6,1-1.2,1.3
			c-0.2,0.1-0.4,0.1-0.6,0.1c-0.2,0-0.5-0.1-0.8-0.2c-1.2-0.7-1.9-1.1-2.3-1.3l-0.8,1c-0.3,0.4-0.8,0.7-1.4,0.7
			c-0.4,0-0.8-0.1-1.1-0.4c-0.4-0.3-0.6-0.7-0.7-1.1c-0.1,0-0.1,0-0.2,0c-0.4,0-0.8-0.1-1.1-0.4c-0.4-0.3-0.6-0.7-0.7-1.2
			c-0.1,0-0.2,0-0.3,0c-0.4,0-0.8-0.1-1.1-0.4c-0.4-0.3-0.6-0.7-0.7-1.1c-0.1,0-0.1,0-0.2,0c-0.4,0-0.8-0.1-1.1-0.4
			c-0.4-0.3-0.6-0.7-0.7-1.2c-0.1-0.5,0-0.9,0.3-1.3l0.2-0.3c-1.2-0.8-2.3-2.2-2.8-2.9l-0.6,0.9l-0.1,0c0.9,6.6,6.5,11.6,13.3,11.6
			c6.8,0,12.5-5.1,13.3-11.8l-0.2-0.3l-2.4,1.8C254.7,108.3,254.8,108.7,254.7,109.2z"/>
	</g>
</g>
<g>
	<ellipse fill="#AFDAE9" cx="160.8" cy="256" rx="5.4" ry="5.3"/>
	<ellipse fill="#AFDAE9" cx="139" cy="249.7" rx="5.4" ry="5.3"/>
	<path fill="#AFDAE9" d="M117.2,258.8c3,0,5.4-2.4,5.4-5.3c0-3-2.4-5.3-5.4-5.3c-3,0-5.4,2.4-5.4,5.3
		C111.8,256.4,114.2,258.8,117.2,258.8z"/>
	<path fill="#AFDAE9" d="M154.8,279.8l-1.1-2.5c-0.3-0.8-1.4-1.2-2.1-0.9l-2.9,1.3l-0.3-0.3c-1.3-1.6-3-2.7-5-3.5l-0.4-0.2l0.3-3.1
		c0.1-0.5,0-0.9-0.3-1.2c-0.2-0.3-0.5-0.4-0.8-0.4l-2.7-0.3c-0.9-0.1-1.8,0.5-1.9,1.4l-0.4,3.2l-0.5,0.1c-2,0.3-3.8,1.1-5.5,2.5
		l-0.4,0.3l-2.5-1.8c-0.7-0.5-1.6-0.5-2.1,0.1l-1.6,2.2c-0.3,0.4-0.4,0.8-0.3,1.3c0.1,0.4,0.3,0.8,0.6,1l2.5,1.8l-0.2,0.4
		c-0.4,1-0.7,2.1-0.8,3.1c-0.1,1-0.1,2.1,0,3.1l0.1,0.5l-2.6,1.1c-0.5,0.2-0.8,0.5-0.9,0.9c-0.1,0.3-0.1,0.6,0,0.9l1.1,2.5
		c0.3,0.8,1.4,1.2,2.1,0.9l2.5-1.1l0.3,0.4c1.4,1.7,3.2,3,5.3,3.8l0.4,0.2l-0.3,2.6c-0.1,0.5,0,0.9,0.3,1.2c0.2,0.3,0.5,0.4,0.8,0.4
		l2.7,0.3c0.9,0.1,1.8-0.5,1.9-1.4l0.3-2.7l0.5-0.1c2.2-0.4,4.2-1.3,5.9-2.7l0.4-0.3l2.2,1.6c0.7,0.5,1.6,0.5,2.1-0.1l1.6-2.2
		c0.3-0.4,0.4-0.8,0.3-1.3c-0.1-0.4-0.3-0.8-0.6-1l-2.3-1.7l0.2-0.4c0.3-0.9,0.5-1.8,0.6-2.7c0.1-1.3,0.1-2.4-0.1-3.5l-0.1-0.5
		l2.7-1.2c0.5-0.2,0.8-0.5,0.9-0.9C155,280.4,154.9,280.1,154.8,279.8z M145.1,286.1c-0.4,3.1-3,5.5-6.2,5.5c-0.2,0-0.5,0-0.7,0
		c-1.7-0.2-3.2-1-4.2-2.3c-1-1.3-1.5-2.9-1.3-4.5c0.4-3.4,3.4-5.8,6.9-5.5c1.7,0.2,3.2,1,4.2,2.3
		C144.9,282.8,145.3,284.4,145.1,286.1z"/>
	<path fill="#AFDAE9" d="M176.8,291.6c-0.1-0.2-0.2-0.3-0.4-0.4l-1.9-0.7l0-0.5c0-0.6,0-1.2-0.1-1.8c-0.1-0.8-0.3-1.5-0.7-2.2
		l-0.2-0.4l1.6-1.3c0.2-0.2,0.3-0.4,0.4-0.6c0-0.2,0-0.3-0.1-0.4l-1.1-1.4c-0.2-0.2-0.5-0.3-0.7-0.3c-0.1,0-0.3,0-0.5,0.2l-1.7,1.4
		l-0.4-0.3c-1.1-0.7-2.3-1.2-3.7-1.3l-0.5,0l-0.4-2.2c-0.1-0.4-0.3-0.8-0.8-0.7l-1.8,0.3c-0.2,0-0.5,0.2-0.6,0.4
		c-0.1,0.2-0.2,0.4-0.1,0.6l0.4,2.2l-0.4,0.2c-1.2,0.5-2.2,1.3-3,2.5l-0.3,0.4l-2-0.8c-0.1-0.1-0.3-0.1-0.4-0.1
		c-0.2,0-0.5,0.1-0.6,0.4l-0.6,1.7c-0.1,0.2-0.1,0.5,0,0.7c0.1,0.2,0.2,0.3,0.4,0.4l2,0.7l-0.1,0.5c-0.1,0.7-0.1,1.4,0.1,2.1
		c0.1,0.7,0.3,1.3,0.6,1.9l0.2,0.4l-1.6,1.3c-0.2,0.2-0.3,0.4-0.4,0.6c0,0.2,0,0.3,0.1,0.4l1.1,1.4c0.2,0.2,0.5,0.3,0.7,0.3
		c0.1,0,0.3,0,0.5-0.2l1.5-1.2l0.4,0.3c1.2,0.8,2.5,1.3,3.9,1.5l0.5,0l0.3,1.8c0.1,0.4,0.3,0.8,0.8,0.7l1.8-0.3
		c0.2,0,0.5-0.2,0.6-0.4c0.1-0.2,0.2-0.4,0.1-0.6l-0.3-1.9l0.4-0.2c1.3-0.6,2.4-1.5,3.2-2.7l0.3-0.4l1.8,0.7
		c0.1,0.1,0.3,0.1,0.4,0.1c0.2,0,0.5-0.1,0.6-0.4l0.6-1.7C176.9,292,176.9,291.8,176.8,291.6z M170,292c-0.7,0.9-1.7,1.5-2.8,1.7
		c-0.2,0-0.5,0.1-0.7,0.1c-2.1,0-3.9-1.5-4.3-3.6c-0.2-1.1,0.1-2.3,0.8-3.2c0.7-0.9,1.7-1.5,2.8-1.7c0.2,0,0.5-0.1,0.7-0.1
		c2.1,0,3.9,1.5,4.3,3.6C170.9,289.9,170.7,291,170,292z"/>
	<path fill="#AFDAE9" d="M121,285.2l-0.7-1.6c-0.2-0.4-0.7-0.7-1.1-0.5l-2,0.9l-0.3-0.3c-0.9-1-1.9-1.7-3.2-2.2l-0.4-0.2l0.2-2.2
		c0-0.3,0-0.5-0.2-0.7c-0.1-0.1-0.2-0.2-0.4-0.2L111,278c-0.5-0.1-0.9,0.3-1,0.7l-0.3,2.2l-0.5,0.1c-1.3,0.2-2.5,0.7-3.5,1.6
		l-0.4,0.3l-1.8-1.3c-0.4-0.3-0.8-0.3-1.1,0l-1.1,1.4c-0.1,0.2-0.2,0.4-0.2,0.7c0,0.2,0.1,0.4,0.3,0.5l1.8,1.2l-0.2,0.5
		c-0.3,0.6-0.4,1.3-0.5,2c-0.1,0.7-0.1,1.3,0,2l0.1,0.5l-1.8,0.8c-0.3,0.1-0.4,0.3-0.5,0.5c-0.1,0.1,0,0.3,0,0.4l0.7,1.6
		c0.2,0.4,0.7,0.7,1.1,0.5l1.8-0.8l0.3,0.4c0.9,1.1,2.1,1.9,3.4,2.4l0.4,0.2l-0.2,1.9c0,0.3,0,0.5,0.2,0.7c0.1,0.1,0.2,0.2,0.4,0.2
		l1.8,0.2c0.5,0.1,0.9-0.3,1-0.7l0.2-1.9l0.5-0.1c1.4-0.2,2.7-0.8,3.8-1.7l0.4-0.3l1.6,1.1c0.2,0.1,0.4,0.2,0.6,0.2
		c0.2,0,0.4-0.1,0.5-0.3l1.1-1.4c0.1-0.2,0.2-0.4,0.2-0.7c0-0.2-0.1-0.4-0.3-0.5l-1.7-1.2l0.2-0.4c0.2-0.6,0.3-1.1,0.4-1.7
		c0.1-0.8,0.1-1.5-0.1-2.3l-0.1-0.5l1.9-0.8c0.3-0.1,0.4-0.3,0.5-0.5C121,285.5,121,285.4,121,285.2z M115,289.3
		c-0.2,2.2-2.1,3.8-4.3,3.8c-0.2,0-0.3,0-0.5,0c-1.2-0.1-2.2-0.7-2.9-1.6c-0.7-0.9-1-2-0.9-3.1c0.3-2.3,2.4-4,4.8-3.8
		c1.2,0.1,2.2,0.7,2.9,1.6C114.8,287.1,115.1,288.2,115,289.3z"/>
	<path fill="#AFDAE9" d="M161.4,261.8h-1.1c-3.8,0-7.1,1.8-9.2,4.5c-0.1-6-5.2-10.8-11.4-10.8h-1.1c-5.5,0-10.1,3.7-11.2,8.6
		c-2.1-2.9-5.5-4.9-9.5-4.9h-1.1c-6.3,0-11.5,4.9-11.5,11v8.8h3.6l0.1-0.6c0.1-1.1,1.2-1.9,2.4-1.8l1.8,0.2c0.5,0.1,0.9,0.3,1.2,0.7
		c0.3,0.4,0.5,0.9,0.4,1.5l9.1,0c-0.3-0.4-0.5-0.8-0.6-1.3c-0.1-0.8,0.1-1.6,0.5-2.2l1.6-2.2c0.5-0.7,1.2-1,2-1
		c0.6,0,1.2,0.2,1.8,0.6l1.7,1.3c1.6-1.2,3.4-2,5.3-2.3l0.3-2.2c0.2-1.5,1.6-2.6,3.2-2.4l2.7,0.3c0.7,0.1,1.3,0.4,1.7,0.9
		c0.5,0.6,0.7,1.3,0.6,2.2l-0.2,2.2c1.8,0.8,3.4,1.9,4.7,3.3l2.1-0.9c0.3-0.1,0.7-0.2,1.1-0.2c1.1,0,2.2,0.7,2.7,1.8l1,2.4h6.1
		c0.1-0.2,0.2-0.4,0.3-0.6c0.3-0.5,0.9-0.8,1.4-0.9l1.8-0.3c1.1-0.2,2,0.6,2.2,1.7l0,0h5.1v-6.3
		C172.8,266.8,167.7,261.8,161.4,261.8z"/>
</g>
<g>
	<g>
		<path fill="#AFDAE9" d="M95.8,257.5c0,2.5-2.1,4.6-4.6,4.6c-2.5,0-4.6-2.1-4.6-4.6c0-2.5,2.1-4.6,4.6-4.6
			C93.8,252.9,95.8,255,95.8,257.5z"/>
	</g>
</g>
<g>
	<g>
		<path fill="#AFDAE9" d="M75.1,244.3c0,2.5-2.1,4.6-4.6,4.6c-2.5,0-4.6-2.1-4.6-4.6c0-2.5,2.1-4.6,4.6-4.6
			C73.1,239.7,75.1,241.8,75.1,244.3z"/>
	</g>
</g>
<g>
	<g>
		<path fill="#AFDAE9" d="M59.3,230.7c0,2.5-2.1,4.6-4.6,4.6c-2.5,0-4.6-2.1-4.6-4.6c0-2.5,2.1-4.6,4.6-4.6
			C57.2,226.1,59.3,228.2,59.3,230.7z"/>
	</g>
</g>
<g>
	<g>
		<path fill="#AFDAE9" d="M256,164.9c0,2.5-2.1,4.6-4.6,4.6c-2.5,0-4.6-2.1-4.6-4.6c0-2.5,2.1-4.6,4.6-4.6
			C253.9,160.3,256,162.4,256,164.9z"/>
	</g>
</g>
<g>
	<g>
		<path fill="#AFDAE9" d="M31.1,141.8c0,2.5-2.1,4.6-4.6,4.6c-2.5,0-4.6-2.1-4.6-4.6c0-2.5,2.1-4.6,4.6-4.6
			C29,137.2,31.1,139.2,31.1,141.8z"/>
	</g>
</g>
<g>
	<g>
		<path fill="#AFDAE9" d="M190.6,257.5c0,2.5-2.1,4.6-4.6,4.6c-2.5,0-4.6-2.1-4.6-4.6c0-2.5,2.1-4.6,4.6-4.6
			C188.5,252.9,190.6,255,190.6,257.5z"/>
	</g>
</g>
<g>
	<g>
		<path fill="#AFDAE9" d="M212.6,244.3c0,2.5-2.1,4.6-4.6,4.6c-2.5,0-4.6-2.1-4.6-4.6c0-2.5,2.1-4.6,4.6-4.6
			C210.5,239.7,212.6,241.8,212.6,244.3z"/>
	</g>
</g>
<g>
	<g>
		<path fill="#AFDAE9" d="M227.6,230.7c0,2.5-2.1,4.6-4.6,4.6c-2.5,0-4.6-2.1-4.6-4.6c0-2.5,2.1-4.6,4.6-4.6
			C225.5,226.1,227.6,228.2,227.6,230.7z"/>
	</g>
</g>
<g>
	<g>
		<path fill="#AFDAE9" d="M30.6,164.9c0,2.5-2.1,4.6-4.6,4.6c-2.5,0-4.6-2.1-4.6-4.6c0-2.5,2.1-4.6,4.6-4.6
			C28.6,160.3,30.6,162.4,30.6,164.9z"/>
	</g>
</g>
<g>
	<g>
		<path fill="#AFDAE9" d="M256,141.5c0,2.5-2.1,4.6-4.6,4.6c-2.5,0-4.6-2.1-4.6-4.6c0-2.5,2.1-4.6,4.6-4.6
			C253.9,136.9,256,139,256,141.5z"/>
	</g>
</g>
<g>
	<g>
		<path fill="#AFDAE9" d="M212.6,65.2c0,2.5-2.1,4.6-4.6,4.6c-2.5,0-4.6-2.1-4.6-4.6c0-2.5,2.1-4.6,4.6-4.6
			C210.5,60.6,212.6,62.7,212.6,65.2z"/>
	</g>
</g>
<g>
	<g>
		<path fill="#AFDAE9" d="M228.2,79.7c0,2.5-2.1,4.6-4.6,4.6c-2.5,0-4.6-2.1-4.6-4.6c0-2.5,2.1-4.6,4.6-4.6
			C226.1,75.1,228.2,77.2,228.2,79.7z"/>
	</g>
</g>
<g>
	<g>
		<path fill="#AFDAE9" d="M190.6,52.5c0,2.5-2.1,4.6-4.6,4.6c-2.5,0-4.6-2.1-4.6-4.6c0-2.5,2.1-4.6,4.6-4.6
			C188.5,47.9,190.6,49.9,190.6,52.5z"/>
	</g>
</g>
<g>
	<g>
		<path fill="#AFDAE9" d="M95.8,52.5c0,2.5-2.1,4.6-4.6,4.6c-2.5,0-4.6-2.1-4.6-4.6c0-2.5,2.1-4.6,4.6-4.6
			C93.8,47.9,95.8,49.9,95.8,52.5z"/>
	</g>
</g>
<g>
	<g>
		<path fill="#AFDAE9" d="M59.3,79.7c0,2.5-2.1,4.6-4.6,4.6c-2.5,0-4.6-2.1-4.6-4.6c0-2.5,2.1-4.6,4.6-4.6
			C57.2,75.1,59.3,77.2,59.3,79.7z"/>
	</g>
</g>
<g>
	<g>
		<path fill="#AFDAE9" d="M75.1,65.4c0,2.5-2.1,4.6-4.6,4.6C68,70,66,67.9,66,65.4c0-2.5,2.1-4.6,4.6-4.6
			C73.1,60.8,75.1,62.9,75.1,65.4z"/>
	</g>
</g>
</svg>
