<?xml version="1.0" encoding="utf-8"?>
<!-- Generator: Adobe Illustrator 18.1.0, SVG Export Plug-In . SVG Version: 6.00 Build 0)  -->
<svg version="1.1" id="图层_1" xmlns="http://www.w3.org/2000/svg" xmlns:xlink="http://www.w3.org/1999/xlink" x="0px" y="0px"
	 viewBox="0 0 280.8 316" enable-background="new 0 0 280.8 316" xml:space="preserve">
<g>
	<path fill="#AFDAE9" d="M35.2,169.9c-5.6,0-10.2,4.3-11,10c-0.1,0.6-0.1,1.2-0.1,1.8c0,0.2,0,0.5,0,0.7c0,0.4,0.1,0.7,0.1,1
		c0,0.1,0,0.2,0,0.3c0.7,8,5.4,14.1,11,14.1c5.6,0,10.3-6.1,11-14.1c0-0.1,0-0.2,0-0.3c0.1-0.3,0.1-0.7,0.1-1c0-0.2,0-0.5,0-0.7
		c0-0.6,0-1.2-0.1-1.8C45.4,174.2,40.7,169.9,35.2,169.9z"/>
	<path fill="#AFDAE9" d="M25.8,219.1L25.8,219.1c0-2.5,1-4.8,2.7-6.6c1.8-1.8,4.1-2.7,6.6-2.7c2.5,0,4.8,1,6.6,2.7
		c1.8,1.8,2.7,4.1,2.7,6.6v0c7.3,0,13-0.6,13-8.1c0-7.4-5.5-13.6-12.7-14.6c0,0-0.1,0-0.1,0c-0.2,0-0.4-0.1-0.6-0.1c0,0,0,0,0,0.1
		c0,0.1,0,0.1,0,0.2c0,0.3-0.1,0.7-0.3,1c-1.1,2.7-4.6,7.9-6.7,10.8l-0.4-6.1c0.6-0.3,1.1-0.8,1.5-1.4c0.2-0.4,0.4-0.9,0.4-1.4
		c0,0-1.5,0.7-3.1,0.7c-0.1,0-0.2,0-0.3,0c-0.1,0-0.2,0-0.3,0c-1.6,0-3.1-0.7-3.1-0.7c0,0.5,0.1,0.9,0.4,1.4
		c0.3,0.6,0.9,1.1,1.5,1.4l-0.4,6.1c-2.1-2.9-5.6-8.1-6.7-10.8c-0.2-0.3-0.3-0.7-0.3-1c0-0.1,0-0.1,0-0.2c0,0,0,0,0-0.1
		c-0.2,0-0.4,0-0.6,0.1c0,0-0.1,0-0.1,0c-7.2,1-12.7,7.2-12.7,14.6C12.8,218.5,18.5,219,25.8,219.1z"/>
	<path fill="#AFDAE9" d="M41,222.2c0.5-1,0.8-2,0.8-3.1c0-1.8-0.7-3.4-1.9-4.7c-1.2-1.2-2.9-1.9-4.7-1.9c-1.8,0-3.4,0.7-4.7,1.9
		c-1.2,1.2-1.9,2.9-1.9,4.7c0,3.6,3,6.6,6.6,6.6c1.1,0,2.2-0.3,3.1-0.8l4.5,4.5c0.4,0.4,0.9,0.6,1.3,0.6c0.5,0,1-0.2,1.3-0.6
		c0.7-0.7,0.7-1.9,0-2.7L41,222.2z M37.7,221.6c-0.7,0.7-1.6,1-2.5,1c-2,0-3.6-1.6-3.6-3.6c0-1,0.4-1.9,1.1-2.5
		c0.7-0.7,1.6-1.1,2.5-1.1c1,0,1.9,0.4,2.5,1.1c0.7,0.7,1.1,1.6,1.1,2.5C38.8,220,38.4,220.9,37.7,221.6z"/>
</g>
<g>
	<g>
		<path fill="#AFDAE9" d="M128.1,77.1h-9.4c-1.4,0-2.5-1.1-2.5-2.5V55.4c0-1.4,1.1-2.5,2.5-2.5h9.4c1.4,0,2.5,1.1,2.5,2.5v19.2
			C130.6,76,129.4,77.1,128.1,77.1z"/>
		<path fill="#AFDAE9" d="M148.5,77.1H140c-1.6,0-2.9-1.3-2.9-2.9V46.5c0-1.6,1.3-2.9,2.9-2.9h8.5c1.6,0,2.9,1.3,2.9,2.9v27.7
			C151.5,75.8,150.2,77.1,148.5,77.1z"/>
		<path fill="#AFDAE9" d="M169.1,77.1h-7.7c-1.8,0-3.3-1.5-3.3-3.3V37.6c0-1.8,1.5-3.3,3.3-3.3h7.7c1.8,0,3.3,1.5,3.3,3.3v36.2
			C172.4,75.6,170.9,77.1,169.1,77.1z"/>
	</g>
	<path fill="#AFDAE9" d="M170.3,6.8c-3,0.1-5.4,2.7-5.2,5.7l-14,13.7l-11.9-10.4l-21.8,21.8c-2.8,0.4-4.9,2.8-4.8,5.6
		c0.1,3,2.7,5.4,5.7,5.2c3-0.1,5.4-2.7,5.2-5.7c0-0.2-0.1-0.5-0.1-0.7l16.4-15.7l11.5,10.1l19.1-18.7c0.1,0,0.2,0,0.3,0
		c3-0.1,5.4-2.7,5.2-5.7S173.3,6.7,170.3,6.8z"/>
</g>
<g id="Shopping_6_Glyph">
	<path fill="#AFDAE9" d="M21,86.9h-7.8l8.4,27.1h32.6l9.7-27.1h-39L20,72.6H5.4v3.7h12L21,86.9z M30.3,101.1h1.5c0-0.1,0-0.3,0-0.5
		c0-0.3,0-0.6,0-0.8h-1.6v-2h1.9c0.4-1.5,1-2.8,1.9-3.8c1.6-1.8,3.8-2.9,6.5-2.9c1.7,0,3.2,0.4,4.2,0.8L44,95.1
		c-0.7-0.3-1.9-0.7-3.1-0.7c-1.3,0-2.6,0.5-3.4,1.5c-0.4,0.4-0.7,1.1-0.9,1.8h7v2h-7.4c0,0.3,0,0.6,0,0.9c0,0.2,0,0.3,0,0.4h7.4v2
		h-7c0.2,0.8,0.5,1.5,0.9,2c0.9,1,2.2,1.4,3.6,1.4c1.3,0,2.6-0.4,3.2-0.7l0.7,3.1c-1,0.5-2.6,1.1-4.4,1.1c-2.7,0-5.3-1.1-6.8-3.2
		c-0.8-1-1.3-2.2-1.6-3.6h-1.8V101.1z"/>
	<circle fill="#AFDAE9" cx="27.3" cy="124.2" r="7"/>
	<circle fill="#AFDAE9" cx="48.5" cy="124.2" r="7"/>
</g>
<g id="Flat_copy">
	<g>
		<path fill="#AFDAE9" d="M246.5,174c-14.3,0-25.9,11.6-25.9,25.9c0,14.3,11.6,25.9,25.9,25.9c14.3,0,25.9-11.6,25.9-25.9
			C272.4,185.6,260.8,174,246.5,174z"/>
	</g>
	<path fill="#FFFFFF" d="M242.7,214.4h6v-14.4h4l0.5-5h-4.5l0-2.5c0-1.3,0.1-2,2-2h2.5v-5h-4c-4.8,0-6.5,2.4-6.5,6.5v3h-3v5h3V214.4
		L242.7,214.4z"/>
</g>
<path fill="#AFDAE9" d="M117,121.9c0.3,0,0.6-0.1,0.9-0.3c14.1-10,33.4-11.1,48.7-2.8l-5,2.1l16,4.3l-8.4-14.3l-0.7,5.5
	c-16.4-9.1-37.3-8.1-52.5,2.7c-0.7,0.5-0.9,1.5-0.4,2.2C116,121.7,116.5,121.9,117,121.9z"/>
<path fill="#AFDAE9" d="M103.5,137.4l2.1,5l4.3-16l-14.3,8.4l5.5,0.7c-9.1,16.4-8.1,37.3,2.7,52.4c0.3,0.4,0.8,0.6,1.3,0.6
	c0.3,0,0.6-0.1,0.9-0.3c0.7-0.5,0.9-1.5,0.4-2.2C96.2,172,95.2,152.7,103.5,137.4z"/>
<path fill="#AFDAE9" d="M170.7,197.7c-14.1,10-33.4,11.1-48.7,2.8l5-2.1l-16-4.3l8.4,14.3l0.7-5.5c7.4,4.1,15.8,6.2,24.1,6.2
	c10,0,20-3,28.3-8.9c0.7-0.5,0.9-1.5,0.4-2.2C172.3,197.4,171.4,197.2,170.7,197.7z"/>
<path fill="#AFDAE9" d="M184.8,131.5c-0.5-0.7-1.5-0.9-2.2-0.4c-0.7,0.5-0.9,1.5-0.4,2.2c10,14.1,11.1,33.4,2.8,48.7l-2.1-5l-4.3,16
	l14.3-8.4l-5.5-0.7C196.7,167.6,195.7,146.7,184.8,131.5z"/>
<g id="Layer_3">
	<g>
		<path fill="#AFDAE9" d="M241.6,110.9l2.1-2.8c0.1-0.1,0.1-0.3,0.1-0.5c0-0.2-0.1-0.3-0.3-0.4c-0.1-0.1-0.3-0.1-0.4-0.1
			c-0.2,0-0.4,0.1-0.5,0.2l-2.1,2.8c-0.2,0.3-0.1,0.7,0.2,0.9C240.9,111.3,241.4,111.2,241.6,110.9z"/>
		<path fill="#AFDAE9" d="M239.4,109.3l2.7-3.7c0.2-0.3,0.1-0.7-0.2-0.9c-0.1-0.1-0.3-0.1-0.4-0.1c-0.2,0-0.4,0.1-0.5,0.2l-2.7,3.7
			c-0.1,0.1-0.1,0.3-0.1,0.5c0,0.2,0.1,0.3,0.3,0.5C238.8,109.7,239.2,109.6,239.4,109.3z"/>
		<path fill="#AFDAE9" d="M238.1,94.5c1.2,1.3,3.5,1.1,4.1,1c1.1-1,2.4-1.6,3.7-1.7c1.4-0.2,3,0,4.9,0.5c0.6,0.2,1.1,0.3,1.6,0.5
			c0,0,0.1,0.1,0.2,0.1c0,0,0.1,0.1,0.2,0.1l1.7-0.4l-1.7-2.8l1.3-1.3c-2.3-1.7-5.1-2.7-8.2-2.7c-2.5,0-4.8,0.6-6.8,1.8l0.8,1.3
			l-2.1,3.5C237.9,94.4,238,94.4,238.1,94.5z"/>
		<path fill="#AFDAE9" d="M236.3,105c0.6-0.7,1.7-0.8,2.5-0.2c0.2,0.2,0.4,0.3,0.5,0.6l0.9-1.2c0.6-0.8,1.8-1,2.6-0.4
			c0.7,0.5,0.9,1.4,0.6,2.1c0.3,0,0.6,0.1,0.9,0.3c0.4,0.3,0.7,0.7,0.7,1.2c0,0.3,0,0.6-0.1,0.8c0.3,0.1,0.5,0.2,0.7,0.3
			c0.8,0.6,1,1.7,0.4,2.5c0.5,0.3,1.4,0.8,2.2,1.2c0.3,0.1,0.4,0.1,0.5,0c0.3-0.1,0.5-0.5,0.6-0.7l-1.3-0.8
			c-0.3-0.2-0.4-0.5-0.2-0.8c0.2-0.3,0.5-0.4,0.8-0.2l1.7,1.1c0.5,0.1,0.9,0,1.1-0.2c0.2-0.2,0.4-0.5,0.4-0.7l-3-1.7
			c-0.3-0.2-0.4-0.5-0.2-0.8c0.2-0.3,0.5-0.4,0.8-0.2l3.3,1.9c0.5,0,0.9-0.1,1.1-0.4c0.2-0.2,0.2-0.6,0.2-0.8l-4.9-3.1
			c-0.3-0.2-0.4-0.5-0.2-0.8c0.2-0.3,0.5-0.4,0.8-0.2l4.9,3.1c0.1,0,0.2,0,0.2,0.1c0.4,0.1,0.7,0,0.9-0.1c0.2-0.1,0.3-0.3,0.3-0.5
			c0.1-0.6-0.7-1.2-1.3-1.7c-2.1-1.5-4.3-2.9-6.4-4.3l-1.8-1.2c-0.9-0.6-1.3-0.5-1.4-0.4l-2.6,2.3c-0.8,0.6-1.5,0.8-2.2,0.7
			c-0.8-0.2-1.2-1-1.2-1.1c-0.2-0.9,0.2-1.7,0.5-2.2c0.4-0.6,0.8-1.2,1.2-1.7c-1.2,0-2.7-0.3-3.8-1.4l-3.9,6.5c0,0,0.1,0,0.1,0.1
			C233.4,101.9,234.9,104.1,236.3,105z"/>
		<path fill="#AFDAE9" d="M237.6,105.6c-0.2,0-0.4,0.1-0.5,0.3l-0.8,1.1c-0.1,0.1-0.1,0.3-0.1,0.5c0,0.2,0.1,0.3,0.3,0.5
			c0.3,0.2,0.7,0.2,0.9-0.1l0.8-1.1c0.1-0.1,0.1-0.3,0.1-0.5c0-0.2-0.1-0.3-0.3-0.5C237.9,105.6,237.7,105.6,237.6,105.6z"/>
		<path fill="#AFDAE9" d="M243.6,112.5l1.5-2c0.2-0.3,0.1-0.7-0.2-0.9c-0.1-0.1-0.3-0.1-0.4-0.1c-0.2,0-0.4,0.1-0.5,0.2l-1.3,1.7
			l-0.2,0.3c0,0,0,0,0,0c-0.1,0.1-0.1,0.3-0.1,0.5c0,0.2,0.1,0.3,0.3,0.5C243,112.8,243.4,112.7,243.6,112.5z"/>
		<path fill="#AFDAE9" d="M273.6,96.9l-4.3-0.3c-0.1-0.3-0.1-0.6-0.2-0.9c-0.6-2.2-1.5-4.2-2.6-6.1c0,0,1.3-1.4,2.9-3.2
			c1.6-1.7,1.2-4.7-0.9-6.7l-2.3-2.1c-1.1-1-2.5-1.5-3.8-1.5c-1.2,0-2.2,0.4-3,1.3l-3,3.2c-2.3-1.1-4.7-1.8-7.2-2.1
			c0,0-0.3-1.9-0.7-4.3c-0.3-2.1-2.4-3.6-4.9-3.6c-0.3,0-0.6,0-1,0.1l-3.2,0.5c-2.9,0.5-4.9,2.8-4.5,5.2l0.7,4.4
			c-2.3,1.1-4.3,2.5-6.1,4.2c0,0-1.7-1-3.9-2.2c-0.6-0.3-1.3-0.5-1.9-0.5c-1.7,0-3.5,1-4.6,2.8l-1.6,2.7c-1.4,2.5-0.9,5.5,1.3,6.7
			l3.9,2.2c-0.6,2.4-0.8,4.9-0.5,7.4c0,0-1.9,0.7-4.2,1.7c-2.3,0.9-3.3,3.8-2.2,6.5l1.2,2.9c0.9,2.1,2.8,3.5,4.6,3.5
			c0.5,0,1-0.1,1.4-0.3l4.1-1.6c1.6,2,3.4,3.7,5.5,5.1c0,0-0.6,1.9-1.3,4.2c-0.7,2.3,1,4.8,3.7,5.7l3.1,0.9c0.6,0.2,1.2,0.3,1.8,0.3
			c2.1,0,4-1.1,4.5-2.9l1.2-4.1c0.1,0,0.1,0,0.2,0c2.1,0,4.3-0.3,6.4-0.9c0.3-0.1,0.7-0.2,1-0.3c0,0,1.1,1.6,2.4,3.5
			c0.7,1.1,2,1.6,3.4,1.6c1.1,0,2.3-0.4,3.4-1.1l2.7-1.8c2.4-1.6,3.2-4.5,1.9-6.4l-2.4-3.5c1.6-2,2.9-4.3,3.8-6.7
			c0,0,1.9,0.1,4.3,0.3c0.1,0,0.2,0,0.2,0c2.3,0,4.2-2.2,4.4-4.9l0.2-3.1C277.8,99.6,276,97.1,273.6,96.9z M245.9,118.1
			c-8.9,0-16.1-7.2-16.1-16.2c0-8.9,7.2-16.2,16.1-16.2c8.9,0,16.1,7.2,16.1,16.2C262,110.9,254.8,118.1,245.9,118.1z"/>
		<path fill="#AFDAE9" d="M255,95.7l-2,0.5c-0.3,0.1-0.6-0.1-0.8-0.2c-0.6-0.2-1.1-0.4-1.6-0.5c-1.8-0.5-3.2-0.6-4.5-0.5
			c-2.7,0.4-4.4,2.7-5.2,4.1c-0.3,0.6-0.4,1-0.4,1.3h0c0,0,0.1,0.3,0.4,0.3c0.3,0.1,0.7-0.1,1.1-0.4l2.5-2.2c0.2-0.3,1.1-1,3,0.2
			l1.8,1.2c2.1,1.3,4.3,2.7,6.4,4.3c0.3,0.2,0.6,0.4,0.9,0.7l2.6-2L255,95.7C255.1,95.6,255.1,95.7,255,95.7z"/>
		<path fill="#AFDAE9" d="M257.5,106.6c-0.1,0.6-0.4,1-0.8,1.3c-0.4,0.3-0.8,0.4-1.3,0.4c0,0,0,0,0,0c0,0.4-0.1,0.9-0.5,1.3
			c-0.4,0.5-1,0.7-1.7,0.8c-0.1,0.4-0.3,0.9-0.8,1.3c-0.4,0.3-0.9,0.5-1.5,0.5c-0.1,0-0.2,0-0.3,0c-0.2,0.4-0.6,1.1-1.3,1.4
			c-0.2,0.1-0.4,0.1-0.7,0.1c-0.3,0-0.6-0.1-0.9-0.2c-1.3-0.7-2-1.1-2.4-1.3l-0.8,1.1c-0.3,0.5-0.9,0.7-1.5,0.7
			c-0.4,0-0.8-0.1-1.1-0.4c-0.4-0.3-0.6-0.7-0.7-1.2c-0.1,0-0.1,0-0.2,0c-0.4,0-0.8-0.1-1.1-0.4c-0.4-0.3-0.7-0.8-0.7-1.3
			c-0.1,0-0.2,0-0.3,0c-0.4,0-0.8-0.1-1.1-0.4c-0.4-0.3-0.7-0.7-0.7-1.2c-0.1,0-0.1,0-0.2,0c-0.4,0-0.8-0.1-1.1-0.4
			c-0.4-0.3-0.7-0.7-0.7-1.2c-0.1-0.5,0.1-1,0.3-1.4l0.2-0.3c-1.2-0.9-2.4-2.4-2.9-3l-0.6,1l-0.1,0c0.9,6.9,6.8,12.2,14,12.2
			c7.2,0,13.1-5.4,14-12.4l-0.2-0.3l-2.5,1.9C257.5,105.7,257.6,106.1,257.5,106.6z"/>
	</g>
</g>
<g>
	<ellipse fill="#AFDAE9" cx="167.2" cy="261.1" rx="5.7" ry="5.6"/>
	<ellipse fill="#AFDAE9" cx="144.3" cy="254.4" rx="5.7" ry="5.6"/>
	<path fill="#AFDAE9" d="M121.3,264.1c3.1,0,5.7-2.5,5.7-5.6c0-3.1-2.5-5.6-5.7-5.6c-3.1,0-5.7,2.5-5.7,5.6
		C115.6,261.5,118.2,264.1,121.3,264.1z"/>
	<path fill="#AFDAE9" d="M160.9,286.1l-1.1-2.6c-0.4-0.8-1.4-1.3-2.2-1l-3,1.3l-0.3-0.4c-1.4-1.6-3.2-2.9-5.2-3.6l-0.5-0.2l0.4-3.3
		c0.1-0.5-0.1-1-0.3-1.3c-0.2-0.3-0.5-0.4-0.9-0.5l-2.9-0.3c-1-0.1-1.9,0.6-2,1.4l-0.4,3.3l-0.5,0.1c-2.1,0.3-4,1.2-5.8,2.6
		l-0.4,0.3l-2.6-1.9c-0.8-0.6-1.7-0.5-2.2,0.1l-1.7,2.3c-0.3,0.4-0.4,0.9-0.3,1.4c0.1,0.4,0.3,0.8,0.6,1l2.6,1.8l-0.2,0.5
		c-0.4,1.1-0.7,2.2-0.8,3.3c-0.1,1.1-0.1,2.2,0,3.3l0.1,0.5l-2.7,1.2c-0.5,0.2-0.8,0.5-1,0.9c-0.1,0.3-0.1,0.6,0,1l1.1,2.6
		c0.4,0.8,1.4,1.3,2.2,1l2.7-1.2l0.3,0.4c1.5,1.8,3.4,3.2,5.5,4l0.5,0.2l-0.3,2.7c-0.1,0.5,0.1,1,0.3,1.3c0.2,0.3,0.5,0.4,0.9,0.5
		l2.9,0.3c1,0.1,1.9-0.6,2-1.4l0.3-2.8l0.5-0.1c2.3-0.4,4.4-1.4,6.2-2.9l0.4-0.3l2.3,1.7c0.8,0.6,1.7,0.5,2.2-0.1l1.7-2.3
		c0.3-0.4,0.4-0.9,0.3-1.3c-0.1-0.4-0.3-0.8-0.6-1l-2.5-1.8l0.2-0.5c0.3-0.9,0.5-1.9,0.6-2.8c0.2-1.4,0.1-2.5-0.1-3.7l-0.1-0.5
		l2.9-1.2c0.5-0.2,0.8-0.5,1-0.9C161.1,286.7,161,286.4,160.9,286.1z M150.7,292.7c-0.4,3.3-3.2,5.8-6.5,5.8c-0.2,0-0.5,0-0.7,0
		c-1.8-0.2-3.3-1.1-4.4-2.4c-1.1-1.4-1.6-3.1-1.4-4.8c0.4-3.5,3.6-6.1,7.3-5.7c1.8,0.2,3.3,1.1,4.4,2.4
		C150.4,289.3,150.9,291,150.7,292.7z"/>
	<path fill="#AFDAE9" d="M184.1,298.5c-0.1-0.2-0.2-0.4-0.4-0.4l-2-0.8l0-0.5c0-0.6,0-1.2-0.1-1.8c-0.1-0.9-0.4-1.6-0.7-2.3
		l-0.2-0.5l1.7-1.4c0.2-0.2,0.4-0.4,0.4-0.6c0-0.2,0-0.3-0.1-0.4l-1.2-1.5c-0.2-0.2-0.5-0.4-0.8-0.4c-0.1,0-0.3,0-0.5,0.2l-1.8,1.5
		l-0.4-0.3c-1.2-0.8-2.4-1.2-3.9-1.4l-0.5,0l-0.4-2.3c-0.1-0.4-0.3-0.8-0.8-0.7l-1.9,0.3c-0.2,0-0.5,0.2-0.6,0.4
		c-0.1,0.2-0.2,0.4-0.2,0.6l0.4,2.3l-0.4,0.2c-1.2,0.6-2.3,1.4-3.2,2.6l-0.3,0.4l-2.1-0.8c-0.1-0.1-0.3-0.1-0.4-0.1
		c-0.2,0-0.5,0.1-0.6,0.4l-0.7,1.7c-0.1,0.2-0.1,0.5,0,0.7c0.1,0.2,0.2,0.4,0.4,0.4l2.1,0.8l-0.1,0.5c-0.1,0.7-0.1,1.5,0.1,2.2
		c0.1,0.7,0.3,1.4,0.6,2l0.2,0.5l-1.6,1.3c-0.2,0.2-0.4,0.4-0.4,0.6c0,0.2,0,0.3,0.1,0.4l1.2,1.5c0.2,0.2,0.5,0.4,0.8,0.4
		c0.1,0,0.3,0,0.5-0.2l1.6-1.3l0.4,0.3c1.2,0.9,2.6,1.4,4.1,1.5l0.5,0l0.3,1.9c0.1,0.4,0.3,0.8,0.8,0.7l1.9-0.3
		c0.3,0,0.5-0.2,0.6-0.4c0.1-0.2,0.2-0.4,0.2-0.6l-0.4-2l0.5-0.2c1.3-0.6,2.5-1.6,3.4-2.8l0.3-0.4l1.9,0.7c0.1,0.1,0.3,0.1,0.4,0.1
		c0.2,0,0.5-0.1,0.6-0.4l0.7-1.8C184.2,299,184.2,298.7,184.1,298.5z M176.9,298.9c-0.7,1-1.8,1.6-3,1.8c-0.2,0-0.5,0.1-0.7,0.1
		c-2.2,0-4.1-1.6-4.5-3.8c-0.2-1.2,0.1-2.4,0.8-3.3c0.7-1,1.8-1.6,3-1.8c0.2,0,0.5-0.1,0.7-0.1c2.2,0,4.1,1.6,4.5,3.8
		C177.9,296.8,177.6,297.9,176.9,298.9z"/>
	<path fill="#AFDAE9" d="M125.3,291.8l-0.8-1.7c-0.2-0.4-0.8-0.7-1.2-0.5l-2.1,0.9l-0.3-0.4c-0.9-1-2-1.8-3.4-2.3l-0.5-0.2l0.2-2.3
		c0-0.3,0-0.5-0.2-0.7c-0.1-0.1-0.2-0.2-0.4-0.2l-1.9-0.2c-0.5-0.1-1,0.3-1,0.7l-0.3,2.4l-0.5,0.1c-1.4,0.2-2.6,0.8-3.7,1.7
		l-0.4,0.3l-1.8-1.4c-0.4-0.3-0.9-0.3-1.1,0l-1.1,1.5c-0.1,0.2-0.2,0.5-0.2,0.7c0,0.2,0.1,0.4,0.3,0.5l1.8,1.3l-0.2,0.5
		c-0.3,0.7-0.4,1.4-0.5,2.1c-0.1,0.7-0.1,1.4,0,2.1l0.1,0.5l-1.9,0.8c-0.3,0.1-0.5,0.3-0.5,0.5c-0.1,0.1-0.1,0.3,0,0.5l0.8,1.7
		c0.2,0.4,0.8,0.7,1.2,0.5l1.9-0.8l0.3,0.4c0.9,1.2,2.2,2,3.5,2.6l0.5,0.2l-0.2,2c0,0.3,0,0.5,0.2,0.7c0.1,0.1,0.2,0.2,0.4,0.2
		l1.9,0.2c0.5,0.1,1-0.3,1-0.7l0.2-2l0.5-0.1c1.5-0.2,2.8-0.9,4-1.8l0.4-0.3l1.6,1.2c0.2,0.1,0.4,0.2,0.6,0.2c0.2,0,0.4-0.1,0.5-0.3
		l1.1-1.5c0.1-0.2,0.2-0.5,0.2-0.7c0-0.2-0.1-0.4-0.3-0.5l-1.8-1.3l0.2-0.5c0.2-0.6,0.3-1.2,0.4-1.8c0.1-0.9,0.1-1.6-0.1-2.4
		l-0.1-0.5l2-0.9c0.3-0.1,0.5-0.3,0.5-0.5C125.4,292.1,125.4,292,125.3,291.8z M119,296.1c-0.3,2.3-2.2,4-4.5,4c-0.2,0-0.3,0-0.5,0
		c-1.2-0.1-2.3-0.7-3.1-1.7c-0.7-0.9-1.1-2.1-1-3.3c0.3-2.4,2.5-4.3,5-4c1.2,0.1,2.3,0.7,3.1,1.7C118.8,293.8,119.2,294.9,119,296.1
		z"/>
	<path fill="#AFDAE9" d="M167.8,267.2h-1.2c-4,0-7.5,1.9-9.7,4.7c-0.1-6.3-5.5-11.4-12-11.4h-1.2c-5.8,0-10.6,3.9-11.8,9.1
		c-2.2-3.1-5.8-5.1-10-5.1h-1.2c-6.6,0-12.1,5.2-12.1,11.6v9.3h3.8l0.1-0.6c0.1-1.1,1.3-2,2.5-1.9l1.9,0.2c0.5,0.1,1,0.3,1.3,0.7
		c0.3,0.4,0.5,1,0.4,1.6l9.6,0c-0.3-0.4-0.5-0.8-0.6-1.4c-0.1-0.8,0.1-1.7,0.6-2.3l1.7-2.3c0.5-0.7,1.3-1.1,2.1-1.1
		c0.6,0,1.3,0.2,1.9,0.7l1.8,1.3c1.7-1.2,3.6-2.1,5.5-2.5l0.3-2.4c0.2-1.6,1.7-2.8,3.4-2.6l2.9,0.3c0.7,0.1,1.3,0.4,1.8,0.9
		c0.5,0.6,0.7,1.4,0.6,2.3l-0.2,2.3c1.9,0.8,3.6,2,5,3.5l2.2-1c0.4-0.2,0.7-0.2,1.1-0.2c1.2,0,2.3,0.7,2.8,1.9l1.1,2.5h6.4
		c0.1-0.2,0.2-0.4,0.3-0.6c0.4-0.5,0.9-0.8,1.5-0.9l1.9-0.3c1.2-0.2,2.1,0.6,2.3,1.8l0,0h5.4v-6.6
		C179.9,272.4,174.4,267.2,167.8,267.2z"/>
</g>
<g>
	<g>
		<path fill="#AFDAE9" d="M94,272.9c0,2.7-2.2,4.8-4.8,4.8c-2.7,0-4.8-2.2-4.8-4.8c0-2.7,2.2-4.8,4.8-4.8
			C91.8,268,94,270.2,94,272.9z"/>
	</g>
</g>
<g>
	<g>
		<path fill="#AFDAE9" d="M74.1,257.9c0,2.7-2.2,4.8-4.8,4.8c-2.7,0-4.8-2.2-4.8-4.8c0-2.7,2.2-4.8,4.8-4.8
			C71.9,253,74.1,255.2,74.1,257.9z"/>
	</g>
</g>
<g>
	<g>
		<path fill="#AFDAE9" d="M49,241.5c0,2.7-2.2,4.8-4.8,4.8c-2.7,0-4.8-2.2-4.8-4.8c0-2.7,2.2-4.8,4.8-4.8
			C46.8,236.7,49,238.8,49,241.5z"/>
	</g>
</g>
<g>
	<g>
		<path fill="#AFDAE9" d="M40,158c0,2.7-2.2,4.8-4.8,4.8c-2.7,0-4.8-2.2-4.8-4.8c0-2.7,2.2-4.8,4.8-4.8C37.8,153.2,40,155.3,40,158z
			"/>
	</g>
</g>
<g>
	<g>
		<path fill="#AFDAE9" d="M40,140.9c0,2.7-2.2,4.8-4.8,4.8c-2.7,0-4.8-2.2-4.8-4.8c0-2.7,2.2-4.8,4.8-4.8
			C37.8,136,40,138.2,40,140.9z"/>
	</g>
</g>
<g>
	<g>
		<path fill="#AFDAE9" d="M200.3,273c0,2.7-2.2,4.8-4.8,4.8c-2.7,0-4.8-2.2-4.8-4.8c0-2.7,2.2-4.8,4.8-4.8
			C198.2,268.2,200.3,270.3,200.3,273z"/>
	</g>
</g>
<g>
	<g>
		<path fill="#AFDAE9" d="M220.2,257.9c0,2.7-2.2,4.8-4.8,4.8c-2.7,0-4.8-2.2-4.8-4.8c0-2.7,2.2-4.8,4.8-4.8
			C218.1,253,220.2,255.2,220.2,257.9z"/>
	</g>
</g>
<g>
	<g>
		<path fill="#AFDAE9" d="M239.3,241.5c0,2.7-2.2,4.8-4.8,4.8c-2.7,0-4.8-2.2-4.8-4.8c0-2.7,2.2-4.8,4.8-4.8
			C237.1,236.7,239.3,238.8,239.3,241.5z"/>
	</g>
</g>
<g>
	<g>
		<path fill="#AFDAE9" d="M251.3,158c0,2.7-2.2,4.8-4.8,4.8c-2.7,0-4.8-2.2-4.8-4.8c0-2.7,2.2-4.8,4.8-4.8
			C249.1,153.2,251.3,155.3,251.3,158z"/>
	</g>
</g>
<g>
	<g>
		<path fill="#AFDAE9" d="M251.3,140.6c0,2.7-2.2,4.8-4.8,4.8c-2.7,0-4.8-2.2-4.8-4.8c0-2.7,2.2-4.8,4.8-4.8
			C249.1,135.8,251.3,138,251.3,140.6z"/>
	</g>
</g>
<g>
	<g>
		<path fill="#AFDAE9" d="M220.1,49.9c0,2.7-2.2,4.8-4.8,4.8c-2.7,0-4.8-2.2-4.8-4.8c0-2.7,2.2-4.8,4.8-4.8
			C217.9,45.1,220.1,47.2,220.1,49.9z"/>
	</g>
</g>
<g>
	<g>
		<path fill="#AFDAE9" d="M239.3,61.4c0,2.7-2.2,4.8-4.8,4.8c-2.7,0-4.8-2.2-4.8-4.8c0-2.7,2.2-4.8,4.8-4.8
			C237.1,56.6,239.3,58.7,239.3,61.4z"/>
	</g>
</g>
<g>
	<g>
		<path fill="#AFDAE9" d="M200.3,40.2c0,2.7-2.2,4.8-4.8,4.8c-2.7,0-4.8-2.2-4.8-4.8c0-2.7,2.2-4.8,4.8-4.8
			C198.2,35.4,200.3,37.6,200.3,40.2z"/>
	</g>
</g>
<g>
	<g>
		<path fill="#AFDAE9" d="M94,40.2c0,2.7-2.2,4.8-4.8,4.8c-2.7,0-4.8-2.2-4.8-4.8c0-2.7,2.2-4.8,4.8-4.8C91.8,35.4,94,37.6,94,40.2z
			"/>
	</g>
</g>
<g>
	<g>
		<path fill="#AFDAE9" d="M59.9,66.2c0,2.7-2.2,4.8-4.8,4.8c-2.7,0-4.8-2.2-4.8-4.8c0-2.7,2.2-4.8,4.8-4.8
			C57.7,61.4,59.9,63.6,59.9,66.2z"/>
	</g>
</g>
<g>
	<g>
		<path fill="#AFDAE9" d="M76.1,51.9c0,2.7-2.2,4.8-4.8,4.8c-2.7,0-4.8-2.2-4.8-4.8c0-2.7,2.2-4.8,4.8-4.8
			C73.9,47.1,76.1,49.2,76.1,51.9z"/>
	</g>
</g>
</svg>
