<?xml version="1.0" encoding="utf-8"?>
<!-- Generator: Adobe Illustrator 18.1.0, SVG Export Plug-In . SVG Version: 6.00 Build 0)  -->
<svg version="1.1" id="图层_1" xmlns="http://www.w3.org/2000/svg" xmlns:xlink="http://www.w3.org/1999/xlink" x="0px" y="0px"
	 viewBox="0 0 135 132" enable-background="new 0 0 135 132" xml:space="preserve">
<g>
	<g>
		<path fill="#ADD5E3" d="M40.2,82.4c-0.5,1-0.9,2.2-1.3,3.6c6.4,9,16.9,14.9,28.8,14.9c11.9,0,22.5-6,28.9-15
			c-0.4-1.3-0.8-2.5-1.3-3.5c-2.6-5.2-9.8-5.8-14.9-7.8c-1.7,6.9-4.7,17.8-7.9,24.2L69.5,83l0.7-2.8l-2.5-1.7l-2.5,1.7l0.7,2.8
			L63,98.7c-3.2-6.4-6.2-17.3-7.9-24.2C49.9,76.5,42.7,77.2,40.2,82.4z"/>
		<path fill="#ADD5E3" d="M67.6,71c4.4,0,8.1-3.5,10.8-8.2c2.7-4.8,5.8-15.7,4.7-20.8c-1.6-7.2-8.5-11.6-15.5-11.6
			c-7,0-13.9,4.4-15.5,11.6c-1.1,5.2,2,16.1,4.7,20.8C59.5,67.4,63.2,71,67.6,71z"/>
		<path fill="#ADD5E3" d="M16.3,73.5c2.2,1.2,4.3,2.4,6.4,3.6c-1.8-7.2-1.5-13-1.1-16.6C23.5,45.4,33,32.2,45.1,25.5
			c3-1.7,5.7-2.7,7.3-3.2c1.4-3,2.8-6,4.2-9c-3.4-0.8-6.8-1.7-10.2-2.5c-4.2,1.2-10.3,3.6-16.7,8.4C27.6,20.7,20.6,26.2,15,36
			c-4.1,7.3-5.5,13.6-6.5,18.2c0,0-1.7,7.9-1.5,16.1c0,2,0.2,5.5,1.4,9.7c0,0,0,0.1,0,0.1l6-7.5C15,72.9,15.7,73.2,16.3,73.5z"/>
		<path fill="#ADD5E3" d="M21.6,92.8"/>
		<path fill="#ADD5E3" d="M100.1,23.5c-2.4,0.7-4.7,1.4-7,2c6.4,3.8,10.4,8.1,12.6,10.9c9.5,11.9,12.2,28,8.6,41.4
			c-0.9,3.3-2,5.9-2.8,7.5c1.2,3.1,2.3,6.2,3.5,9.3c3-1.9,6-3.7,9-5.6c2-3.8,4.6-9.9,5.7-17.8c0.4-2.7,1.3-11.5-1.8-22.3
			c-2.3-8-5.8-13.5-8.4-17.4c0,0-4.5-6.8-10.4-12.4c-1.5-1.4-4-3.7-7.9-5.8c0,0,0,0-0.1,0l1.2,9.6C101.5,23,100.8,23.2,100.1,23.5z"
			/>
		<path fill="#ADD5E3" d="M97.1,109.6c0.1-2.5,0.2-4.9,0.4-7.3c-5.7,4.7-11.1,7-14.5,8.2c-14.4,4.9-30.4,2.1-41.8-5.9
			c-2.8-2-4.9-3.9-6.1-5.2c-3.3,0.1-6.6,0.1-9.9,0.2c0.7,3.4,1.5,6.9,2.2,10.3c2.9,3.2,7.8,7.7,14.8,11.3c2.4,1.2,10.4,5.1,21.6,5.9
			c8.3,0.5,14.6-0.9,19.2-2.1c0,0,7.9-1.9,15.2-5.7c1.8-0.9,4.8-2.5,8.1-5.5c0,0,0,0,0.1,0l-9.4-2.1C97.1,111,97.1,110.3,97.1,109.6
			z"/>
	</g>
</g>
<g>
	<path fill="#FFFFFF" d="M38.2,113.2l1.2-6.4l1.2,0.7l-0.9,4.7l3.6-3.2l1.1,0.7l-4.9,4.2L38.2,113.2z"/>
	<path fill="#FFFFFF" d="M44.5,111.3l0.6-0.9l1,0.6l-0.6,0.9L44.5,111.3z M41.7,115.6l2.4-3.7l1,0.6l-2.4,3.7L41.7,115.6z"/>
	<path fill="#FFFFFF" d="M44.8,115.9l1.1,0.4c-0.1,0.2,0,0.4,0,0.6c0.1,0.2,0.2,0.3,0.5,0.4c0.3,0.1,0.5,0.2,0.7,0.2
		c0.1,0,0.2-0.1,0.3-0.2c0-0.1,0-0.2,0-0.2c0-0.1-0.1-0.2-0.3-0.3c-0.7-0.6-1.2-1.1-1.3-1.3c-0.2-0.4-0.2-0.7,0-1.1
		c0.2-0.3,0.5-0.6,0.8-0.7c0.4-0.1,0.9,0,1.4,0.3c0.5,0.3,0.9,0.6,1.1,0.9c0.2,0.3,0.2,0.7,0.1,1.1l-1.1-0.3c0-0.2,0-0.3-0.1-0.5
		c-0.1-0.1-0.2-0.3-0.4-0.4c-0.3-0.1-0.5-0.2-0.6-0.2c-0.1,0-0.2,0.1-0.2,0.2c0,0.1,0,0.2,0,0.2c0.1,0.1,0.3,0.4,0.8,0.8
		c0.5,0.4,0.8,0.8,0.9,1.1c0.1,0.3,0.1,0.6-0.1,0.9c-0.2,0.4-0.5,0.6-0.9,0.7c-0.4,0.1-0.9,0-1.5-0.3c-0.5-0.3-0.9-0.6-1.1-1
		C44.7,116.8,44.7,116.4,44.8,115.9z"/>
	<path fill="#FFFFFF" d="M52.3,120.4l0.2-0.6c-0.2,0.2-0.5,0.3-0.8,0.3c-0.3,0-0.6,0-0.8-0.1c-0.3-0.1-0.5-0.3-0.7-0.5
		s-0.3-0.4-0.3-0.7c0-0.3,0.1-0.6,0.2-1l1-2.6l1.1,0.4l-0.7,1.9c-0.2,0.6-0.3,0.9-0.4,1.1c0,0.1,0,0.3,0.1,0.4
		c0.1,0.1,0.2,0.2,0.4,0.3c0.2,0.1,0.4,0.1,0.6,0s0.3-0.1,0.5-0.3s0.3-0.5,0.5-1.1l0.7-1.7l1.1,0.4l-1.6,4.1L52.3,120.4z"/>
	<path fill="#FFFFFF" d="M56.4,118.4l-1-0.3c0.2-0.4,0.4-0.7,0.7-0.9c0.3-0.2,0.8-0.2,1.3-0.1c0.5,0.1,0.9,0.2,1.1,0.3
		c0.2,0.2,0.4,0.3,0.5,0.5c0.1,0.2,0.1,0.6,0,1.1l-0.2,1.4c-0.1,0.4-0.1,0.7-0.1,0.9c0,0.2,0.1,0.4,0.1,0.6l-1.1-0.2
		c0-0.1,0-0.2-0.1-0.4c0-0.1,0-0.1,0-0.1c-0.2,0.2-0.5,0.3-0.7,0.3c-0.2,0.1-0.5,0.1-0.7,0c-0.5-0.1-0.8-0.2-1-0.5
		c-0.2-0.3-0.3-0.6-0.3-1c0-0.2,0.1-0.5,0.3-0.6c0.1-0.2,0.3-0.3,0.6-0.4c0.2-0.1,0.5-0.1,1-0.1c0.6,0,0.9-0.1,1.2-0.1l0-0.1
		c0-0.2,0-0.4-0.1-0.5s-0.3-0.2-0.6-0.2c-0.2,0-0.4,0-0.5,0.1S56.5,118.2,56.4,118.4z M57.9,119.5c-0.2,0-0.4,0.1-0.7,0.1
		c-0.3,0-0.6,0.1-0.7,0.1c-0.2,0.1-0.3,0.2-0.3,0.4c0,0.2,0,0.3,0.1,0.4s0.3,0.2,0.4,0.2c0.2,0,0.4,0,0.6-0.1
		c0.2-0.1,0.3-0.2,0.3-0.3c0-0.1,0.1-0.3,0.1-0.6L57.9,119.5z"/>
	<path fill="#FFFFFF" d="M60,122l1.1-6l1.2,0.2l-1.1,6L60,122z"/>
	<path fill="#FFFFFF" d="M63.2,117.5l0.2-1.1l1.2,0.2l-0.2,1.1L63.2,117.5z M62.4,122.5l0.7-4.4l1.2,0.2l-0.7,4.4L62.4,122.5z"/>
	<path fill="#FFFFFF" d="M65.2,122.6l0-0.9l1.6-2c0.3-0.3,0.5-0.6,0.6-0.7c-0.1,0-0.3,0-0.5,0l-1.6,0.1l0-1l3.7-0.2l0,0.8l-1.6,2
		l-0.6,0.7c0.3,0,0.5-0.1,0.6-0.1l1.8-0.1l0,1L65.2,122.6z"/>
	<path fill="#FFFFFF" d="M71,119l-1.1-0.1c0.1-0.4,0.3-0.8,0.5-1c0.3-0.2,0.7-0.4,1.3-0.4c0.5,0,0.9,0,1.2,0.1
		c0.3,0.1,0.5,0.2,0.6,0.4s0.2,0.5,0.2,1l0.1,1.4c0,0.4,0.1,0.7,0.1,0.9c0.1,0.2,0.1,0.4,0.3,0.6l-1.2,0.1c0-0.1-0.1-0.2-0.1-0.3
		c0-0.1,0-0.1-0.1-0.1c-0.2,0.2-0.4,0.4-0.6,0.5c-0.2,0.1-0.5,0.2-0.7,0.2c-0.5,0-0.8-0.1-1.1-0.3c-0.3-0.2-0.4-0.5-0.5-0.9
		c0-0.2,0-0.5,0.1-0.7c0.1-0.2,0.3-0.4,0.5-0.5c0.2-0.1,0.5-0.2,0.9-0.3c0.5-0.1,0.9-0.3,1.1-0.4l0-0.1c0-0.2-0.1-0.4-0.2-0.5
		c-0.1-0.1-0.3-0.1-0.6-0.1c-0.2,0-0.4,0.1-0.5,0.2S71.1,118.8,71,119z M72.7,119.8c-0.1,0.1-0.4,0.1-0.7,0.2
		c-0.3,0.1-0.5,0.2-0.6,0.2c-0.1,0.1-0.2,0.3-0.2,0.4c0,0.2,0.1,0.3,0.2,0.4c0.1,0.1,0.3,0.2,0.5,0.1c0.2,0,0.4-0.1,0.6-0.3
		c0.1-0.1,0.2-0.3,0.3-0.4c0-0.1,0-0.3,0-0.6L72.7,119.8z"/>
	<path fill="#FFFFFF" d="M77.5,116.7l0.1,0.9l-0.8,0.1l0.2,1.8c0,0.4,0.1,0.6,0.1,0.6c0,0.1,0.1,0.1,0.1,0.1s0.1,0,0.2,0
		c0.1,0,0.3-0.1,0.5-0.2l0.2,0.9c-0.3,0.1-0.6,0.2-0.9,0.3c-0.2,0-0.4,0-0.6,0c-0.2-0.1-0.3-0.1-0.4-0.2c-0.1-0.1-0.2-0.2-0.2-0.4
		c0-0.1-0.1-0.4-0.1-0.8l-0.2-1.9l-0.5,0.1L75,117l0.5-0.1l-0.1-0.9l1.1-0.8l0.2,1.6L77.5,116.7z"/>
	<path fill="#FFFFFF" d="M78.8,115.6l-0.2-1.1l1.2-0.2l0.2,1.1L78.8,115.6z M79.7,120.6l-0.7-4.4l1.2-0.2l0.7,4.4L79.7,120.6z"/>
	<path fill="#FFFFFF" d="M81.7,117.4c0-0.4,0-0.8,0.2-1.2c0.2-0.4,0.4-0.7,0.7-0.9c0.3-0.2,0.7-0.4,1.1-0.4c0.7-0.1,1.2,0.1,1.7,0.5
		s0.7,0.9,0.8,1.6c0.1,0.7-0.1,1.2-0.5,1.7c-0.4,0.5-0.9,0.8-1.6,0.8c-0.4,0-0.8,0-1.2-0.2c-0.4-0.1-0.7-0.4-0.9-0.7
		C81.9,118.3,81.8,117.9,81.7,117.4z M82.9,117.3c0,0.4,0.2,0.8,0.4,1c0.2,0.2,0.5,0.3,0.8,0.3c0.3,0,0.5-0.2,0.7-0.4
		c0.2-0.3,0.3-0.6,0.2-1c0-0.4-0.2-0.8-0.4-1c-0.2-0.2-0.5-0.3-0.8-0.3c-0.3,0-0.5,0.2-0.7,0.4C83,116.6,82.9,116.9,82.9,117.3z"/>
	<path fill="#FFFFFF" d="M91.9,117.2l-1.1,0.3l-0.7-2.2c-0.1-0.5-0.3-0.7-0.3-0.9s-0.2-0.2-0.3-0.2c-0.1,0-0.3,0-0.4,0
		c-0.2,0.1-0.4,0.2-0.5,0.3c-0.1,0.2-0.2,0.3-0.2,0.5c0,0.2,0.1,0.5,0.2,1l0.6,1.9l-1.1,0.3l-1.3-4.2l1-0.3l0.2,0.6
		c0.2-0.6,0.6-1,1.2-1.1c0.2-0.1,0.5-0.1,0.7-0.1s0.4,0.1,0.6,0.2s0.3,0.2,0.4,0.4c0.1,0.2,0.2,0.4,0.3,0.7L91.9,117.2z"/>
</g>
<g>
	<path fill="#FFFFFF" d="M40.6,19.9l-0.9,0.8c-0.3-0.3-0.6-0.4-0.9-0.4c-0.3,0-0.6,0.1-0.9,0.3c-0.3,0.2-0.5,0.5-0.5,0.7
		c-0.1,0.3,0,0.5,0.1,0.6c0.1,0.1,0.2,0.2,0.3,0.2c0.1,0,0.3,0,0.5-0.1c0.1,0,0.5-0.2,0.9-0.4c0.6-0.3,1.1-0.4,1.4-0.4
		c0.5,0,0.9,0.2,1.2,0.6c0.2,0.2,0.3,0.5,0.3,0.8c0,0.3,0,0.6-0.2,0.9c-0.2,0.3-0.4,0.6-0.8,0.9c-0.6,0.5-1.1,0.7-1.7,0.7
		s-0.9-0.2-1.3-0.7l0.9-0.8c0.2,0.2,0.5,0.3,0.7,0.3c0.2,0,0.5-0.1,0.7-0.3c0.3-0.2,0.5-0.4,0.5-0.7c0-0.2,0-0.3-0.1-0.4
		c-0.1-0.1-0.2-0.2-0.4-0.2c-0.2,0-0.6,0.1-1.1,0.4c-0.6,0.3-1,0.4-1.3,0.5c-0.3,0.1-0.6,0-0.9-0.1c-0.3-0.1-0.5-0.3-0.8-0.6
		c-0.2-0.3-0.3-0.6-0.4-0.9c0-0.4,0-0.7,0.2-1c0.2-0.3,0.5-0.7,0.9-1c0.6-0.5,1.2-0.7,1.7-0.7C39.6,19.2,40.1,19.4,40.6,19.9z"/>
	<path fill="#FFFFFF" d="M36,26.7L35.4,26l0.6-0.5l-1.2-1.3c-0.2-0.3-0.4-0.4-0.4-0.4s-0.1,0-0.2,0s-0.1,0-0.2,0.1
		c-0.1,0.1-0.2,0.2-0.3,0.4L33,23.6c0.1-0.3,0.3-0.5,0.5-0.8c0.2-0.1,0.3-0.2,0.5-0.3c0.2-0.1,0.3-0.1,0.5-0.1
		c0.1,0,0.3,0.1,0.4,0.2c0.1,0.1,0.3,0.3,0.6,0.6l1.3,1.4l0.4-0.4l0.6,0.7l-0.4,0.4L38,26l-0.4,1.3l-1.1-1.1L36,26.7z"/>
	<path fill="#FFFFFF" d="M34.3,25.6c0.3,0.3,0.5,0.6,0.6,1s0.1,0.8,0,1.1c-0.1,0.4-0.3,0.7-0.6,1c-0.5,0.5-1,0.7-1.6,0.7
		c-0.6,0-1.1-0.2-1.6-0.7c-0.5-0.5-0.7-1-0.7-1.6c0-0.6,0.2-1.1,0.6-1.6c0.3-0.3,0.6-0.5,1-0.6c0.4-0.1,0.8-0.2,1.1,0
		S34,25.2,34.3,25.6z M33.5,26.4c-0.3-0.3-0.6-0.5-0.9-0.5c-0.3,0-0.6,0.1-0.8,0.3c-0.2,0.2-0.3,0.5-0.3,0.8s0.2,0.6,0.5,0.9
		c0.3,0.3,0.6,0.5,0.9,0.5c0.3,0,0.6-0.1,0.8-0.3c0.2-0.2,0.3-0.5,0.3-0.8C33.9,27,33.8,26.7,33.5,26.4z"/>
	<path fill="#FFFFFF" d="M28.1,28.7l0.8-0.9l3.3,2.9l-0.7,0.8L31,31.1c0.1,0.3,0.1,0.6,0.1,0.8c0,0.2-0.1,0.3-0.2,0.5
		c-0.2,0.2-0.4,0.3-0.7,0.4l-0.5-0.9c0.2-0.1,0.4-0.2,0.5-0.3c0.1-0.1,0.2-0.3,0.2-0.4s-0.1-0.3-0.2-0.5c-0.1-0.2-0.5-0.5-1-1
		L28.1,28.7z"/>
	<path fill="#FFFFFF" d="M29.8,32.7l-0.7,1l-3.1-1l1.9,2.7l-0.7,1l-2.5-3.7l-0.4-0.7c-0.1-0.2-0.2-0.4-0.3-0.6
		c-0.1-0.2-0.1-0.3-0.1-0.4s0-0.3,0.1-0.5c0.1-0.2,0.2-0.3,0.3-0.5c0.1-0.2,0.3-0.3,0.4-0.5l0.8,0.5c-0.1,0.1-0.2,0.2-0.3,0.4
		c-0.2,0.2-0.2,0.4-0.2,0.6c0.1,0.2,0.2,0.4,0.3,0.6L29.8,32.7z"/>
	<path fill="#FFFFFF" d="M25,38.8l-0.8-0.5l0.4-0.7l-1.5-1c-0.3-0.2-0.5-0.3-0.5-0.3c-0.1,0-0.1,0-0.2,0c-0.1,0-0.1,0.1-0.2,0.1
		c-0.1,0.1-0.1,0.2-0.2,0.4l-0.8-0.4c0.1-0.3,0.2-0.6,0.4-0.9c0.1-0.2,0.2-0.3,0.4-0.4c0.2-0.1,0.3-0.2,0.4-0.2c0.1,0,0.3,0,0.5,0.1
		c0.1,0.1,0.4,0.2,0.7,0.4l1.6,1.1l0.3-0.4l0.8,0.5l-0.3,0.4l0.7,0.5L26.7,39l-1.3-0.9L25,38.8z"/>
	<path fill="#FFFFFF" d="M21.1,40.4l-0.8,0.9c-0.3-0.3-0.4-0.7-0.5-1.1s0.1-0.8,0.3-1.2c0.4-0.6,0.9-1,1.5-1c0.5,0,1,0.1,1.5,0.4
		c0.6,0.4,1,0.8,1.2,1.4c0.2,0.5,0.1,1.1-0.2,1.5c-0.3,0.6-0.8,0.9-1.4,1c-0.6,0.1-1.2-0.1-2-0.6l1.5-2.5c-0.3-0.2-0.6-0.2-0.8-0.2
		c-0.3,0.1-0.5,0.2-0.6,0.4c-0.1,0.2-0.1,0.3-0.1,0.5C20.9,40.1,21,40.3,21.1,40.4z M22.1,41.1c0.3,0.2,0.6,0.2,0.8,0.2
		c0.2,0,0.4-0.2,0.5-0.4c0.1-0.2,0.2-0.4,0.1-0.7s-0.2-0.4-0.5-0.6L22.1,41.1z"/>
	<path fill="#FFFFFF" d="M19,42.2l5.5,2.4l-0.5,1.1l-5.5-2.4L19,42.2z"/>
	<path fill="#FFFFFF" d="M18.3,44.2l5.5,2.4l-0.5,1.1l-5.5-2.4L18.3,44.2z"/>
	<path fill="#FFFFFF" d="M22.1,47.8l1,0.4l-0.4,1.1l-1-0.4L22.1,47.8z M17.5,46l4,1.7l-0.4,1.1L17,47L17.5,46z"/>
	<path fill="#FFFFFF" d="M15.4,52.2l0.3-1.1l2.1,0.7c0.4,0.1,0.7,0.2,0.9,0.2s0.3,0,0.4-0.1c0.1-0.1,0.2-0.2,0.2-0.3
		c0.1-0.2,0.1-0.4,0-0.6c-0.1-0.2-0.2-0.3-0.3-0.4s-0.5-0.2-0.9-0.4l-1.9-0.6l0.3-1.1l4.2,1.3l-0.3,1l-0.6-0.2
		c0.4,0.5,0.4,1,0.3,1.6c-0.1,0.2-0.2,0.5-0.3,0.6c-0.2,0.2-0.3,0.3-0.5,0.4c-0.2,0.1-0.3,0.1-0.5,0.1S18.3,53.1,18,53L15.4,52.2z"
		/>
	<path fill="#FFFFFF" d="M14.8,53.8l-0.4,1.3c-0.2,0-0.3,0-0.3,0.1c-0.1,0.1-0.2,0.2-0.2,0.5c-0.1,0.3-0.1,0.5,0,0.7
		c0,0.1,0.1,0.2,0.2,0.3c0.1,0.1,0.3,0.1,0.5,0.2l0.6,0.1c-0.4-0.4-0.5-0.9-0.4-1.4c0.1-0.6,0.5-1,1-1.2c0.4-0.2,0.9-0.2,1.5-0.1
		c0.7,0.2,1.2,0.5,1.5,0.9c0.3,0.4,0.4,0.9,0.3,1.4c-0.1,0.5-0.4,0.9-1,1.2l0.6,0.1l-0.2,1.1L14.7,58c-0.5-0.1-0.9-0.2-1.1-0.4
		c-0.2-0.1-0.4-0.3-0.5-0.5s-0.2-0.4-0.2-0.7c0-0.3,0-0.6,0.1-1c0.2-0.7,0.4-1.2,0.7-1.5c0.3-0.2,0.7-0.3,1-0.2
		C14.7,53.8,14.8,53.8,14.8,53.8z M17.1,55.4c-0.5-0.1-0.8-0.1-1.1,0c-0.2,0.1-0.4,0.3-0.5,0.6c-0.1,0.3,0,0.5,0.2,0.8
		c0.2,0.2,0.5,0.4,0.9,0.5c0.4,0.1,0.8,0.1,1-0.1c0.3-0.1,0.4-0.3,0.5-0.6c0.1-0.3,0-0.5-0.2-0.7C17.8,55.6,17.5,55.5,17.1,55.4z"/>
</g>
<g>
	<path fill="#FFFFFF" d="M119,83.5l0.6-1.2c0.7,0.3,1.1,0.8,1.4,1.3c0.3,0.5,0.3,1.1,0.2,1.8c-0.2,0.9-0.6,1.5-1.3,1.9
		s-1.5,0.5-2.6,0.3c-1.1-0.2-1.8-0.7-2.3-1.3c-0.5-0.7-0.6-1.5-0.5-2.4c0.2-0.8,0.5-1.4,1.1-1.8c0.3-0.2,0.8-0.4,1.3-0.4l0.1,1.3
		c-0.3,0-0.6,0.1-0.9,0.3c-0.2,0.2-0.4,0.5-0.5,0.8c-0.1,0.5,0,0.9,0.3,1.3c0.3,0.4,0.8,0.6,1.6,0.8c0.8,0.2,1.4,0.1,1.8-0.1
		c0.4-0.2,0.7-0.6,0.7-1c0.1-0.3,0-0.7-0.2-1S119.4,83.7,119,83.5z"/>
	<path fill="#FFFFFF" d="M119,81.5c-0.4-0.1-0.8-0.2-1.2-0.5s-0.6-0.6-0.8-1c-0.1-0.4-0.2-0.8-0.1-1.3c0.1-0.7,0.4-1.3,0.9-1.6
		c0.5-0.4,1.1-0.5,1.8-0.4c0.7,0.1,1.3,0.4,1.7,0.9c0.4,0.5,0.6,1.1,0.5,1.8c-0.1,0.4-0.2,0.8-0.5,1.2c-0.3,0.4-0.6,0.6-1,0.8
		C120.1,81.5,119.6,81.5,119,81.5z M119.3,80.2c0.5,0.1,0.8,0,1.1-0.2s0.4-0.4,0.5-0.8c0-0.3,0-0.6-0.3-0.9s-0.6-0.4-1-0.5
		c-0.5-0.1-0.8,0-1.1,0.2c-0.3,0.2-0.4,0.4-0.5,0.8s0,0.6,0.3,0.9C118.5,80,118.8,80.1,119.3,80.2z"/>
	<path fill="#FFFFFF" d="M122.8,76.3l-6.5-0.9l0.2-1.2L123,75L122.8,76.3z"/>
	<path fill="#FFFFFF" d="M123.2,73.9l-6.5-0.7l0.1-1.2l6.5,0.7L123.2,73.9z"/>
	<path fill="#FFFFFF" d="M120.4,70l-0.3,1.1c-0.5-0.1-0.8-0.4-1-0.7c-0.2-0.3-0.3-0.8-0.3-1.4c0-0.6,0.1-1,0.3-1.2
		c0.1-0.3,0.3-0.5,0.5-0.6s0.6-0.1,1.1-0.1l1.5,0.1c0.4,0,0.7,0,0.9,0c0.2,0,0.4-0.1,0.6-0.2l-0.1,1.2c-0.1,0-0.2,0.1-0.4,0.1
		c-0.1,0-0.1,0-0.1,0c0.2,0.2,0.3,0.5,0.4,0.7c0.1,0.2,0.1,0.5,0.1,0.8c0,0.5-0.2,0.9-0.4,1.1c-0.3,0.3-0.6,0.4-1,0.4
		c-0.3,0-0.5-0.1-0.7-0.2s-0.4-0.3-0.5-0.6c-0.1-0.2-0.2-0.6-0.3-1c-0.1-0.6-0.2-1-0.3-1.2l-0.1,0c-0.2,0-0.4,0-0.5,0.2
		s-0.2,0.3-0.2,0.7c0,0.2,0,0.4,0.1,0.5C120.1,69.8,120.2,70,120.4,70z M121.5,68.4c0,0.2,0.1,0.4,0.2,0.8s0.1,0.6,0.2,0.7
		c0.1,0.2,0.3,0.3,0.4,0.3c0.2,0,0.3-0.1,0.5-0.2c0.1-0.1,0.2-0.3,0.2-0.5c0-0.2-0.1-0.4-0.2-0.7c-0.1-0.2-0.2-0.3-0.4-0.3
		c-0.1,0-0.3-0.1-0.6-0.1L121.5,68.4z"/>
	<path fill="#FFFFFF" d="M124.3,65.9l-6.5-0.1l0-1.3l2.4,0c-0.4-0.4-0.6-0.9-0.6-1.4c0-0.6,0.2-1.1,0.7-1.4c0.4-0.4,1-0.5,1.8-0.5
		c0.8,0,1.4,0.2,1.9,0.6c0.4,0.4,0.6,0.9,0.6,1.4c0,0.3-0.1,0.5-0.2,0.8c-0.1,0.3-0.3,0.5-0.6,0.7l0.7,0L124.3,65.9z M121.9,64.6
		c0.5,0,0.9-0.1,1.1-0.2c0.3-0.2,0.5-0.5,0.5-0.9c0-0.3-0.1-0.5-0.3-0.7c-0.2-0.2-0.6-0.3-1.1-0.3c-0.5,0-0.9,0.1-1.2,0.3
		s-0.4,0.4-0.4,0.7c0,0.3,0.1,0.6,0.3,0.8C121,64.5,121.4,64.6,121.9,64.6z"/>
	<path fill="#FFFFFF" d="M121.8,60.6c-0.4,0-0.8-0.1-1.2-0.2c-0.4-0.2-0.7-0.5-0.9-0.8c-0.2-0.4-0.3-0.8-0.4-1.2
		c0-0.7,0.2-1.3,0.6-1.8c0.4-0.5,1-0.7,1.7-0.8c0.7,0,1.3,0.2,1.8,0.6c0.5,0.4,0.8,1,0.8,1.7c0,0.4-0.1,0.9-0.2,1.3
		s-0.4,0.7-0.8,0.9C122.8,60.4,122.3,60.5,121.8,60.6z M121.8,59.3c0.5,0,0.8-0.2,1.1-0.4c0.2-0.2,0.3-0.5,0.3-0.8s-0.2-0.6-0.4-0.8
		c-0.3-0.2-0.6-0.3-1.1-0.3c-0.5,0-0.8,0.2-1.1,0.4c-0.2,0.2-0.3,0.5-0.3,0.8s0.2,0.6,0.4,0.8C120.9,59.2,121.3,59.3,121.8,59.3z"/>
	<path fill="#FFFFFF" d="M122.6,53.1l0.2,1.2l-4.7,0.7l-0.2-1.2l0.7-0.1c-0.3-0.2-0.6-0.3-0.7-0.4c-0.1-0.1-0.2-0.3-0.2-0.5
		c0-0.3,0-0.6,0.1-0.9l1.1,0.2c-0.1,0.2-0.1,0.4-0.1,0.6c0,0.2,0.1,0.3,0.2,0.4s0.3,0.2,0.6,0.2s0.8,0,1.6-0.1L122.6,53.1z"/>
	<path fill="#FFFFFF" d="M118.7,49.8l-0.1,1.2c-0.5-0.1-0.8-0.3-1.1-0.6c-0.2-0.3-0.4-0.7-0.5-1.4c-0.1-0.6,0-1,0.1-1.3
		c0.1-0.3,0.3-0.5,0.4-0.6c0.2-0.1,0.6-0.2,1.1-0.3l1.5-0.1c0.4,0,0.7-0.1,0.9-0.1c0.2-0.1,0.4-0.2,0.6-0.3l0.1,1.2
		c-0.1,0-0.2,0.1-0.4,0.2c-0.1,0-0.1,0-0.1,0.1c0.2,0.2,0.4,0.4,0.5,0.6c0.1,0.2,0.2,0.5,0.2,0.8c0,0.5,0,0.9-0.3,1.2
		s-0.6,0.5-1,0.5c-0.3,0-0.5,0-0.7-0.1c-0.2-0.1-0.4-0.3-0.5-0.5c-0.1-0.2-0.3-0.5-0.4-1c-0.2-0.6-0.3-1-0.4-1.2l-0.1,0
		c-0.2,0-0.4,0.1-0.5,0.2c-0.1,0.1-0.1,0.4-0.1,0.7c0,0.2,0.1,0.4,0.2,0.5C118.3,49.7,118.4,49.8,118.7,49.8z M119.5,48.1
		c0.1,0.2,0.2,0.4,0.3,0.7c0.1,0.3,0.2,0.6,0.3,0.7c0.1,0.2,0.3,0.2,0.5,0.2c0.2,0,0.3-0.1,0.4-0.2c0.1-0.1,0.2-0.3,0.1-0.5
		c0-0.2-0.1-0.4-0.3-0.6c-0.1-0.1-0.3-0.2-0.4-0.3c-0.1,0-0.3,0-0.6,0L119.5,48.1z"/>
	<path fill="#FFFFFF" d="M116.1,43.4l1-0.2l0.1,0.8l1.9-0.3c0.4-0.1,0.6-0.1,0.7-0.1c0.1,0,0.1-0.1,0.1-0.1c0-0.1,0-0.1,0-0.2
		c0-0.1-0.1-0.3-0.2-0.5l0.9-0.3c0.2,0.3,0.3,0.6,0.4,0.9c0,0.2,0,0.4,0,0.6c0,0.2-0.1,0.3-0.2,0.4s-0.3,0.2-0.5,0.3
		c-0.1,0.1-0.4,0.1-0.9,0.2l-2,0.3l0.1,0.6l-1,0.2l-0.1-0.6l-0.9,0.2l-0.9-1.1l1.7-0.3L116.1,43.4z"/>
	<path fill="#FFFFFF" d="M114.7,42.5l-1.1,0.3l-0.3-1.2l1.1-0.3L114.7,42.5z M119.9,41.1l-4.6,1.2l-0.3-1.2l4.6-1.2L119.9,41.1z"/>
	<path fill="#FFFFFF" d="M116.6,39.7c-0.4,0.1-0.8,0.2-1.2,0.1c-0.4-0.1-0.8-0.3-1.1-0.6c-0.3-0.3-0.5-0.7-0.7-1.1
		c-0.2-0.7-0.2-1.3,0.1-1.9s0.8-1,1.5-1.2c0.7-0.2,1.3-0.2,1.9,0.1c0.6,0.3,1,0.8,1.2,1.4c0.1,0.4,0.2,0.8,0.1,1.3s-0.2,0.8-0.5,1.1
		S117.1,39.6,116.6,39.7z M116.3,38.5c0.4-0.1,0.8-0.4,0.9-0.7s0.2-0.6,0.1-0.9c-0.1-0.3-0.3-0.5-0.6-0.7s-0.7-0.1-1.1,0
		c-0.4,0.1-0.7,0.4-0.9,0.6c-0.2,0.3-0.2,0.6-0.1,0.9s0.3,0.5,0.6,0.7C115.4,38.6,115.8,38.6,116.3,38.5z"/>
	<path fill="#FFFFFF" d="M113.3,30l0.6,1.1l-2.1,1.2c-0.4,0.3-0.7,0.4-0.8,0.6c-0.1,0.1-0.2,0.3-0.2,0.4c0,0.1,0,0.3,0.1,0.4
		c0.1,0.2,0.3,0.3,0.4,0.4c0.2,0.1,0.4,0.1,0.6,0.1c0.2,0,0.5-0.2,1-0.5l1.9-1.1l0.6,1.1l-4.1,2.4l-0.6-1l0.6-0.3
		c-0.7-0.1-1.2-0.4-1.5-1c-0.1-0.2-0.2-0.5-0.2-0.7s0-0.5,0.1-0.6c0.1-0.2,0.2-0.3,0.3-0.5c0.1-0.1,0.4-0.3,0.7-0.5L113.3,30z"/>
	<path fill="#FFFFFF" d="M110.7,29.6l-0.9-0.9c0.2-0.2,0.2-0.4,0.2-0.6c0-0.2-0.1-0.4-0.3-0.7c-0.2-0.3-0.4-0.4-0.6-0.5
		c-0.1,0-0.3,0-0.4,0.1c-0.1,0.1-0.1,0.1-0.1,0.2c0,0.1,0,0.2,0.1,0.4c0.4,0.9,0.7,1.6,0.7,1.9c0,0.5-0.1,0.8-0.5,1.1
		c-0.3,0.3-0.7,0.3-1.1,0.3s-0.8-0.4-1.3-0.9c-0.4-0.5-0.6-1-0.6-1.3c0-0.4,0.1-0.7,0.3-1.1l0.9,0.8c-0.1,0.2-0.2,0.3-0.2,0.5
		s0.1,0.4,0.3,0.6c0.2,0.3,0.4,0.4,0.5,0.5c0.1,0,0.2,0,0.3,0c0.1-0.1,0.1-0.1,0.1-0.2c0-0.1-0.2-0.5-0.4-1.1s-0.4-1.1-0.4-1.4
		c0-0.3,0.2-0.6,0.5-0.9c0.3-0.3,0.7-0.4,1.2-0.3c0.5,0.1,0.9,0.4,1.4,1c0.4,0.5,0.6,1,0.6,1.4C111.1,28.8,111,29.2,110.7,29.6z"/>
</g>
</svg>
